# Blender 4.5.6 LTS
# www.blender.org
o V_carton_03
v -0.422500 -0.295000 -0.162500
v -0.422500 -0.295000 0.162500
v -0.422500 0.295000 -0.162500
v -0.422500 0.295000 0.162500
v 0.422500 -0.295000 -0.162500
v 0.422500 -0.295000 0.162500
v 0.422500 0.295000 -0.162500
v 0.422500 0.295000 0.162500
vn -1.0000 -0.0000 -0.0000
vn -0.0000 1.0000 -0.0000
vn 1.0000 -0.0000 -0.0000
vn -0.0000 -1.0000 -0.0000
vn -0.0000 -0.0000 -1.0000
vn -0.0000 -0.0000 1.0000
vt 0.643313 0.323223
vt 0.466536 0.323223
vt 0.466536 0.002305
vt 0.643313 0.002305
vt 0.002305 0.500000
vt 0.002305 0.323223
vt 0.461925 0.323223
vt 0.461925 0.500000
vt 0.466536 0.327834
vt 0.643313 0.327834
vt 0.643313 0.648752
vt 0.466536 0.648752
vt 0.461925 0.820918
vt 0.461925 0.997695
vt 0.002306 0.997695
vt 0.002305 0.820918
vt 0.002305 0.002305
vt 0.461925 0.002305
s 0
f 1/1/1 2/2/1 4/3/1 3/4/1
f 3/5/2 4/6/2 8/7/2 7/8/2
f 7/9/3 8/10/3 6/11/3 5/12/3
f 5/13/4 6/14/4 2/15/4 1/16/4
f 3/5/5 7/8/5 5/13/5 1/16/5
f 8/7/6 4/6/6 2/17/6 6/18/6
