# Blender 4.5.6 LTS
# www.blender.org
o V_table_Desk
v -0.382474 -0.224950 0.795000
v -0.382474 -0.224950 0.811000
v -0.382474 0.224950 0.795000
v -0.382474 0.224950 0.811000
v 0.382474 -0.224950 0.795000
v 0.382474 -0.224950 0.811000
v 0.382474 0.224950 0.795000
v 0.382474 0.224950 0.811000
v -0.372247 -0.248034 0.796030
v -0.372006 -0.247020 0.795000
v -0.359966 -0.248929 0.795000
v -0.359835 -0.250000 0.796030
v -0.359835 -0.250000 0.809970
v -0.359966 -0.248929 0.811000
v -0.372006 -0.247020 0.811000
v -0.372247 -0.248034 0.809970
v -0.383443 -0.242329 0.796030
v -0.382866 -0.241485 0.795000
v -0.382866 -0.241485 0.811000
v -0.383443 -0.242329 0.809970
v -0.392329 -0.233443 0.796030
v -0.391485 -0.232866 0.795000
v -0.391485 -0.232866 0.811000
v -0.392329 -0.233443 0.809970
v -0.398034 -0.222247 0.796030
v -0.397020 -0.222006 0.795000
v -0.397020 -0.222006 0.811000
v -0.398034 -0.222247 0.809970
v -0.400000 -0.209835 0.796030
v -0.398929 -0.209966 0.795000
v -0.398929 -0.209966 0.811000
v -0.400000 -0.209835 0.809970
v -0.372247 0.248034 0.809970
v -0.372006 0.247020 0.811000
v -0.359966 0.248929 0.811000
v -0.359835 0.250000 0.809970
v -0.359835 0.250000 0.796030
v -0.359966 0.248929 0.795000
v -0.372006 0.247020 0.795000
v -0.372247 0.248034 0.796030
v -0.383443 0.242329 0.809970
v -0.382866 0.241485 0.811000
v -0.382866 0.241485 0.795000
v -0.383443 0.242329 0.796030
v -0.392329 0.233443 0.809970
v -0.391485 0.232866 0.811000
v -0.391485 0.232866 0.795000
v -0.392329 0.233443 0.796030
v -0.398034 0.222247 0.809970
v -0.397020 0.222006 0.811000
v -0.397020 0.222006 0.795000
v -0.398034 0.222247 0.796030
v -0.400000 0.209835 0.809970
v -0.398929 0.209966 0.811000
v -0.398929 0.209966 0.795000
v -0.400000 0.209835 0.796030
v 0.398034 0.222247 0.809970
v 0.397020 0.222006 0.811000
v 0.398929 0.209966 0.811000
v 0.400000 0.209835 0.809970
v 0.400000 0.209835 0.796030
v 0.398929 0.209966 0.795000
v 0.397020 0.222006 0.795000
v 0.398034 0.222247 0.796030
v 0.392329 0.233443 0.809970
v 0.391485 0.232866 0.811000
v 0.391485 0.232866 0.795000
v 0.392329 0.233443 0.796030
v 0.383443 0.242329 0.809970
v 0.382866 0.241485 0.811000
v 0.382866 0.241485 0.795000
v 0.383443 0.242329 0.796030
v 0.372247 0.248034 0.809970
v 0.372006 0.247020 0.811000
v 0.372006 0.247020 0.795000
v 0.372247 0.248034 0.796030
v 0.359835 0.250000 0.809970
v 0.359966 0.248929 0.811000
v 0.359966 0.248929 0.795000
v 0.359835 0.250000 0.796030
v 0.372247 -0.248034 0.809970
v 0.372006 -0.247020 0.811000
v 0.359966 -0.248929 0.811000
v 0.359835 -0.250000 0.809970
v 0.359835 -0.250000 0.796030
v 0.359966 -0.248929 0.795000
v 0.372006 -0.247020 0.795000
v 0.372247 -0.248034 0.796030
v 0.383443 -0.242329 0.809970
v 0.382866 -0.241485 0.811000
v 0.382866 -0.241485 0.795000
v 0.383443 -0.242329 0.796030
v 0.392329 -0.233443 0.809970
v 0.391485 -0.232866 0.811000
v 0.391485 -0.232866 0.795000
v 0.392329 -0.233443 0.796030
v 0.398034 -0.222247 0.809970
v 0.397020 -0.222006 0.811000
v 0.397020 -0.222006 0.795000
v 0.398034 -0.222247 0.796030
v 0.400000 -0.209835 0.809970
v 0.398929 -0.209966 0.811000
v 0.398929 -0.209966 0.795000
v 0.400000 -0.209835 0.796030
v 0.285916 0.058275 0.070000
v 0.344005 -0.198940 0.070000
v 0.344005 -0.198940 0.090000
v 0.397988 -0.172752 0.070000
v 0.397988 -0.172752 0.090000
v -0.344005 -0.198940 0.070000
v -0.344005 -0.198940 0.090000
v -0.397989 -0.172752 0.070000
v -0.397989 -0.172752 0.090000
v -0.025000 0.036071 0.090000
v -0.025000 0.086071 0.090000
v 0.025000 0.036071 0.090000
v 0.025000 0.086071 0.090000
v 0.230000 0.036071 0.070000
v 0.230000 0.036071 0.090000
v 0.205745 0.086071 0.070000
v 0.205745 0.086071 0.090000
v 0.411877 0.119380 0.070000
v 0.411877 0.119380 0.090000
v 0.385689 0.173363 0.070000
v 0.385689 0.173363 0.090000
v -0.230000 0.036071 0.070000
v -0.230000 0.036071 0.090000
v -0.205745 0.086071 0.070000
v -0.205745 0.086071 0.090000
v -0.411877 0.119379 0.070000
v -0.411877 0.119379 0.090000
v -0.385689 0.173363 0.070000
v -0.385689 0.173363 0.090000
v -0.025000 0.036071 0.070000
v -0.025000 0.086071 0.070000
v 0.025000 0.036071 0.070000
v 0.025000 0.086071 0.070000
v -0.259728 0.112258 0.070000
v -0.259728 0.112258 0.090000
v -0.285916 0.058275 0.070000
v -0.285916 0.058275 0.090000
v 0.259728 0.112258 0.070000
v 0.259728 0.112258 0.090000
v 0.285916 0.058275 0.090000
v -0.394552 -0.202206 0.074053
v -0.401940 -0.180897 0.090000
v -0.400793 -0.196803 0.082026
v -0.403497 -0.189003 0.087864
v -0.394552 -0.202206 0.070000
v -0.401940 -0.180897 0.070000
v -0.400793 -0.196803 0.070000
v -0.403497 -0.189003 0.070000
v -0.347956 -0.207084 0.070000
v -0.369265 -0.214472 0.070000
v -0.353359 -0.213326 0.070000
v -0.361158 -0.216030 0.070000
v -0.369265 -0.214472 0.074053
v -0.347956 -0.207084 0.090000
v -0.361158 -0.216030 0.082026
v -0.353359 -0.213326 0.087864
v -0.415143 0.169926 0.074053
v -0.393834 0.177314 0.090000
v -0.409740 0.176168 0.082026
v -0.401941 0.178872 0.087864
v -0.415143 0.169926 0.070000
v -0.393834 0.177314 0.070000
v -0.409740 0.176168 0.070000
v -0.401941 0.178872 0.070000
v -0.420022 0.123331 0.070000
v -0.427410 0.144639 0.070000
v -0.426263 0.128733 0.070000
v -0.428968 0.136533 0.070000
v -0.427410 0.144639 0.074052
v -0.420022 0.123331 0.090000
v -0.428968 0.136533 0.082026
v -0.426263 0.128733 0.087864
v 0.401939 -0.180897 0.090000
v 0.394552 -0.202206 0.074052
v 0.403497 -0.189003 0.087863
v 0.400793 -0.196803 0.082026
v 0.401939 -0.180897 0.070000
v 0.394552 -0.202206 0.070000
v 0.403497 -0.189003 0.070000
v 0.400793 -0.196803 0.070000
v 0.369265 -0.214472 0.070000
v 0.347956 -0.207084 0.070000
v 0.361158 -0.216030 0.070000
v 0.353359 -0.213326 0.070000
v 0.347956 -0.207084 0.090000
v 0.369265 -0.214472 0.074052
v 0.353359 -0.213326 0.087863
v 0.361158 -0.216030 0.082026
v 0.393834 0.177314 0.090000
v 0.415143 0.169926 0.074052
v 0.401941 0.178872 0.087863
v 0.409740 0.176168 0.082026
v 0.393834 0.177314 0.070000
v 0.415143 0.169926 0.070000
v 0.401941 0.178872 0.070000
v 0.409740 0.176168 0.070000
v 0.427409 0.144639 0.070000
v 0.420022 0.123331 0.070000
v 0.428967 0.136533 0.070000
v 0.426263 0.128733 0.070000
v 0.420022 0.123331 0.090000
v 0.427409 0.144639 0.074052
v 0.426263 0.128733 0.087863
v 0.428967 0.136533 0.082026
v -0.025000 0.038237 0.795000
v -0.022834 0.036071 0.795000
v -0.024366 0.036705 0.795000
v -0.022834 0.086071 0.795000
v -0.025000 0.083904 0.795000
v -0.024366 0.085436 0.795000
v 0.022834 0.036071 0.795000
v 0.025000 0.038237 0.795000
v 0.024365 0.036705 0.795000
v 0.025000 0.083904 0.795000
v 0.022834 0.086071 0.795000
v 0.024365 0.085436 0.795000
v 0.025000 0.038237 0.090000
v 0.022834 0.036071 0.090000
v 0.024365 0.036705 0.090000
v 0.022834 0.086071 0.090000
v 0.025000 0.083904 0.090000
v 0.024365 0.085436 0.090000
v -0.022834 0.036071 0.090000
v -0.025000 0.038237 0.090000
v -0.024365 0.036705 0.090000
v -0.025000 0.083904 0.090000
v -0.022834 0.086071 0.090000
v -0.024365 0.085436 0.090000
vn -0.0000 -0.0000 -1.0000
vn -0.0000 -0.0000 1.0000
vn -0.2220 -0.6686 -0.7097
vn -0.0601 -0.6958 -0.7158
vn -0.0500 -0.6955 -0.7168
vn -0.2141 -0.6708 -0.7100
vn -0.0601 -0.6958 0.7158
vn -0.2220 -0.6686 0.7097
vn -0.2141 -0.6708 0.7100
vn -0.0500 -0.6955 0.7168
vn -0.4186 -0.5735 -0.7042
vn -0.4163 -0.5751 -0.7042
vn -0.4186 -0.5735 0.7042
vn -0.4163 -0.5751 0.7042
vn -0.5735 -0.4186 -0.7042
vn -0.5751 -0.4163 -0.7042
vn -0.5735 -0.4186 0.7042
vn -0.5751 -0.4163 0.7042
vn -0.6686 -0.2220 -0.7097
vn -0.6708 -0.2141 -0.7100
vn -0.6686 -0.2220 0.7097
vn -0.6708 -0.2141 0.7100
vn -0.6958 -0.0601 -0.7158
vn -0.6955 -0.0500 -0.7167
vn -0.6958 -0.0601 0.7158
vn -0.6955 -0.0500 0.7167
vn -0.2220 0.6686 0.7097
vn -0.0601 0.6958 0.7158
vn -0.0500 0.6955 0.7168
vn -0.2141 0.6708 0.7100
vn -0.0601 0.6958 -0.7158
vn -0.2220 0.6686 -0.7097
vn -0.2141 0.6708 -0.7100
vn -0.0500 0.6955 -0.7168
vn -0.4186 0.5735 0.7042
vn -0.4163 0.5751 0.7042
vn -0.4186 0.5735 -0.7042
vn -0.4163 0.5751 -0.7042
vn -0.5735 0.4186 0.7042
vn -0.5751 0.4163 0.7042
vn -0.5735 0.4186 -0.7042
vn -0.5752 0.4163 -0.7042
vn -0.6686 0.2220 0.7097
vn -0.6708 0.2141 0.7100
vn -0.6686 0.2220 -0.7097
vn -0.6708 0.2141 -0.7100
vn -0.6958 0.0601 0.7158
vn -0.6955 0.0500 0.7167
vn -0.6958 0.0601 -0.7158
vn -0.6955 0.0500 -0.7167
vn 0.6686 0.2220 0.7097
vn 0.6958 0.0601 0.7158
vn 0.6955 0.0500 0.7167
vn 0.6708 0.2141 0.7100
vn 0.6958 0.0601 -0.7158
vn 0.6686 0.2220 -0.7097
vn 0.6708 0.2141 -0.7100
vn 0.6955 0.0500 -0.7167
vn 0.5735 0.4186 0.7042
vn 0.5751 0.4163 0.7042
vn 0.5735 0.4186 -0.7042
vn 0.5751 0.4163 -0.7042
vn 0.4186 0.5735 0.7042
vn 0.4163 0.5751 0.7042
vn 0.4186 0.5735 -0.7042
vn 0.4163 0.5751 -0.7042
vn 0.2220 0.6686 0.7097
vn 0.2141 0.6708 0.7100
vn 0.2220 0.6686 -0.7097
vn 0.2141 0.6708 -0.7100
vn 0.0601 0.6958 0.7158
vn 0.0500 0.6955 0.7168
vn 0.0601 0.6958 -0.7158
vn 0.0500 0.6955 -0.7168
vn 0.2220 -0.6686 0.7097
vn 0.0601 -0.6958 0.7158
vn 0.0500 -0.6955 0.7168
vn 0.2141 -0.6708 0.7100
vn 0.0601 -0.6958 -0.7158
vn 0.2220 -0.6686 -0.7097
vn 0.2141 -0.6708 -0.7100
vn 0.0500 -0.6955 -0.7168
vn 0.4186 -0.5735 0.7042
vn 0.4163 -0.5751 0.7042
vn 0.4186 -0.5735 -0.7042
vn 0.4163 -0.5751 -0.7042
vn 0.5735 -0.4186 0.7042
vn 0.5751 -0.4163 0.7042
vn 0.5735 -0.4186 -0.7042
vn 0.5752 -0.4163 -0.7042
vn 0.6686 -0.2220 0.7097
vn 0.6708 -0.2141 0.7100
vn 0.6686 -0.2220 -0.7097
vn 0.6708 -0.2141 -0.7100
vn 0.6958 -0.0601 0.7158
vn 0.6955 -0.0500 0.7167
vn 0.6958 -0.0601 -0.7158
vn 0.6955 -0.0500 -0.7167
vn -0.0785 -0.9969 -0.0000
vn -0.3090 -0.9511 -0.0000
vn -0.5878 -0.8090 -0.0000
vn 0.0785 -0.9969 -0.0000
vn -0.8090 -0.5878 -0.0000
vn -0.9511 -0.3090 -0.0000
vn -0.9969 -0.0785 -0.0000
vn -0.9969 0.0785 -0.0000
vn -0.0785 0.9969 -0.0000
vn -0.3090 0.9511 -0.0000
vn -0.5878 0.8090 -0.0000
vn 0.0785 0.9969 -0.0000
vn -0.8090 0.5878 -0.0000
vn -0.9511 0.3090 -0.0000
vn 0.9969 0.0785 -0.0000
vn 0.9511 0.3090 -0.0000
vn 0.8090 0.5878 -0.0000
vn 0.9969 -0.0785 -0.0000
vn 0.5878 0.8090 -0.0000
vn 0.3090 0.9511 -0.0000
vn 0.3090 -0.9511 -0.0000
vn 0.5878 -0.8090 -0.0000
vn 0.8090 -0.5878 -0.0000
vn 0.9511 -0.3090 -0.0000
vn 0.8997 0.4365 -0.0000
vn -0.8997 -0.4365 -0.0000
vn -0.8997 0.4365 -0.0000
vn 0.8997 -0.4365 -0.0000
vn -0.0000 -1.0000 -0.0000
vn -0.0000 1.0000 -0.0000
vn -0.4365 0.8997 -0.0000
vn 0.2239 0.9746 -0.0000
vn 0.4365 0.8997 -0.0000
vn -0.2239 0.9746 -0.0000
vn 0.4365 -0.8997 -0.0000
vn -0.4365 -0.8997 -0.0000
vn -0.9453 0.3262 -0.0000
vn -0.9490 0.3153 -0.0000
vn -0.9974 -0.0719 -0.0000
vn -0.9999 0.0116 -0.0000
vn -0.8278 -0.5610 -0.0000
vn -0.8217 -0.5669 0.0583
vn -0.5502 -0.8351 -0.0000
vn -0.5208 -0.8480 0.0984
vn -0.3436 -0.9339 0.0984
vn 0.0635 -0.9963 0.0583
vn -0.3086 -0.6362 0.7071
vn -0.1859 -0.3833 0.9047
vn -0.0520 -0.1071 0.9929
vn -0.3153 -0.9490 -0.0000
vn 0.0719 -0.9974 -0.0000
vn 0.3276 -0.9448 -0.0000
vn 0.7561 -0.6545 -0.0000
vn 0.8351 -0.5502 -0.0000
vn 0.8414 -0.5405 -0.0000
vn 0.3262 0.9453 -0.0000
vn 0.3153 0.9490 -0.0000
vn 0.1887 0.9820 -0.0000
vn -0.3276 0.9448 -0.0000
vn -0.8265 0.5473 0.1316
vn -0.7561 0.6545 -0.0000
vn -0.8351 0.5502 -0.0000
vn -0.8480 0.5208 0.0984
vn -0.9339 0.3436 0.0984
vn -0.9963 -0.0635 0.0583
vn -0.6362 0.3086 0.7071
vn -0.3833 0.1859 0.9047
vn -0.1071 0.0520 0.9929
vn -0.7781 -0.6281 -0.0000
vn -0.5405 -0.8414 -0.0000
vn 0.5208 -0.8480 0.0984
vn 0.5502 -0.8351 -0.0000
vn 0.6544 -0.7561 -0.0000
vn 0.4316 -0.7561 0.4919
vn 0.9448 -0.3276 -0.0000
vn 0.9974 -0.0719 -0.0000
vn 0.9999 0.0116 -0.0000
vn 0.9490 0.3153 -0.0000
vn 0.9453 0.3262 -0.0000
vn 0.0520 -0.1071 0.9929
vn 0.1130 -0.2329 0.9659
vn 0.3086 -0.6362 0.7071
vn 0.0852 -0.9390 0.3332
vn 0.3436 -0.9339 0.0984
vn -0.8414 -0.5405 -0.0000
vn -0.8351 -0.5502 -0.0000
vn -0.7561 -0.6545 -0.0000
vn -0.3276 -0.9448 -0.0000
vn -0.0719 -0.9974 -0.0000
vn 0.3153 -0.9490 -0.0000
vn 0.8480 0.5208 0.0984
vn 0.8351 0.5502 -0.0000
vn 0.7561 0.6545 -0.0000
vn 0.8265 0.5473 0.1316
vn 0.3276 0.9448 -0.0000
vn -0.1887 0.9820 -0.0000
vn -0.3153 0.9490 -0.0000
vn -0.3262 0.9453 -0.0000
vn 0.1071 0.0520 0.9929
vn 0.2329 0.1130 0.9659
vn 0.6362 0.3086 0.7071
vn 0.9963 -0.0635 0.0583
vn 0.9339 0.3436 0.0984
vn 0.5405 -0.8414 -0.0000
vn 0.8278 -0.5610 -0.0000
vn 0.7781 -0.6281 -0.0000
vn -0.1951 -0.9808 -0.0000
vn -0.3827 -0.9239 -0.0000
vn -0.9239 -0.3827 -0.0000
vn -0.9808 -0.1951 -0.0000
vn -0.1951 0.9808 -0.0000
vn -0.3827 0.9239 -0.0000
vn -0.9239 0.3827 -0.0000
vn -0.9808 0.1951 -0.0000
vn 0.9808 0.1951 -0.0000
vn 0.9239 0.3827 -0.0000
vn 0.3827 0.9239 -0.0000
vn 0.1951 0.9808 -0.0000
vn 0.1951 -0.9808 -0.0000
vn 0.3827 -0.9239 -0.0000
vn 0.9239 -0.3827 -0.0000
vn 0.9808 -0.1951 -0.0000
vt 0.970386 0.973190
vt 0.756373 0.973254
vt 0.756920 0.615736
vt 0.970932 0.615671
vt 0.041572 0.022591
vt 0.600269 0.022364
vt 0.600318 0.968294
vt 0.041622 0.968521
vt 0.979987 0.969458
vt 0.981719 0.964069
vt 0.982447 0.964152
vt 0.980589 0.969702
vt 0.011868 0.941072
vt 0.014351 0.955833
vt 0.012592 0.956303
vt 0.010027 0.940962
vt 0.977288 0.973724
vt 0.977760 0.974098
vt 0.021157 0.969119
vt 0.019666 0.970156
vt 0.973744 0.977024
vt 0.974086 0.977503
vt 0.031802 0.979728
vt 0.030750 0.981237
vt 0.969473 0.979476
vt 0.969690 0.980066
vt 0.045200 0.986566
vt 0.044731 0.988339
vt 0.964248 0.981037
vt 0.964313 0.981739
vt 0.060076 0.989026
vt 0.060190 0.990885
vt 0.627551 0.955580
vt 0.630015 0.940801
vt 0.631864 0.940690
vt 0.629310 0.956047
vt 0.745319 0.964403
vt 0.746938 0.969552
vt 0.746359 0.969781
vt 0.744624 0.964476
vt 0.620770 0.968867
vt 0.622262 0.969901
vt 0.749489 0.973714
vt 0.749022 0.974074
vt 0.610150 0.979490
vt 0.611205 0.980997
vt 0.752949 0.977066
vt 0.752597 0.977545
vt 0.596764 0.986358
vt 0.597238 0.988129
vt 0.757286 0.979636
vt 0.757057 0.980242
vt 0.581906 0.988849
vt 0.581796 0.990701
vt 0.762711 0.981268
vt 0.762640 0.981997
vt 0.596690 0.004319
vt 0.581814 0.001859
vt 0.581701 0.000000
vt 0.597160 0.002546
vt 0.763058 0.607889
vt 0.757832 0.609449
vt 0.757615 0.608860
vt 0.762993 0.607187
vt 0.610088 0.011157
vt 0.611140 0.009648
vt 0.753562 0.611902
vt 0.753219 0.611422
vt 0.620733 0.021766
vt 0.622225 0.020729
vt 0.750017 0.615201
vt 0.749546 0.614827
vt 0.627540 0.035052
vt 0.629299 0.034582
vt 0.747318 0.619467
vt 0.746717 0.619223
vt 0.630022 0.049813
vt 0.631864 0.049923
vt 0.745587 0.624857
vt 0.744859 0.624774
vt 0.014339 0.035305
vt 0.011876 0.050084
vt 0.010027 0.050196
vt 0.012580 0.034838
vt 0.981986 0.624522
vt 0.980367 0.619374
vt 0.980947 0.619144
vt 0.982682 0.624450
vt 0.021120 0.022018
vt 0.019628 0.020984
vt 0.977816 0.615211
vt 0.978283 0.614851
vt 0.031740 0.011395
vt 0.030686 0.009888
vt 0.974356 0.611860
vt 0.974708 0.611380
vt 0.045126 0.004528
vt 0.044653 0.002756
vt 0.970019 0.609290
vt 0.970248 0.608684
vt 0.059985 0.002036
vt 0.060095 0.000184
vt 0.964595 0.607657
vt 0.964666 0.606928
vt 0.964186 0.981750
vt 0.762774 0.981981
vt 0.744619 0.964341
vt 0.744886 0.624918
vt 0.763120 0.607176
vt 0.964531 0.606944
vt 0.982687 0.624585
vt 0.982420 0.964007
vt 0.989261 0.967078
vt 0.986372 0.973108
vt 0.982503 0.978392
vt 0.989261 0.624590
vt 0.988994 0.964013
vt 0.977716 0.982578
vt 0.972334 0.985634
vt 0.966801 0.987877
vt 0.964193 0.988440
vt 0.762782 0.988671
vt 0.738553 0.967073
vt 0.740895 0.972545
vt 0.744108 0.977844
vt 0.738044 0.964336
vt 0.738311 0.624913
vt 0.748475 0.982442
vt 0.753831 0.986097
vt 0.759883 0.988821
vt 0.760505 0.601049
vt 0.754972 0.603292
vt 0.749589 0.606348
vt 0.763112 0.600486
vt 0.964524 0.600254
vt 0.744803 0.610533
vt 0.740934 0.615817
vt 0.738044 0.621848
vt 0.988752 0.621853
vt 0.986411 0.616380
vt 0.983198 0.611081
vt 0.978830 0.606484
vt 0.973474 0.602829
vt 0.967422 0.600104
vt 0.922693 0.151463
vt 0.930432 0.151158
vt 0.976164 0.226715
vt 0.970179 0.229475
vt 0.957360 0.238328
vt 0.952988 0.242496
vt 0.898712 0.172113
vt 0.902209 0.165270
vt 0.659948 0.453396
vt 0.704369 0.362328
vt 0.726414 0.371137
vt 0.681228 0.463775
vt 0.754461 0.145297
vt 0.741885 0.164235
vt 0.720736 0.148699
vt 0.737195 0.132838
vt 0.668090 0.232517
vt 0.661516 0.229449
vt 0.712184 0.148272
vt 0.682343 0.242501
vt 0.745603 0.171485
vt 0.687492 0.247446
vt 0.974042 0.454073
vt 0.952718 0.464361
vt 0.907931 0.371528
vt 0.930015 0.362814
vt 0.815694 0.162902
vt 0.815718 0.168913
vt 0.816006 0.141757
vt 0.831024 0.142015
vt 0.831028 0.148021
vt 0.815846 0.147855
vt 0.830839 0.169233
vt 0.830974 0.162885
vt 0.807308 0.371311
vt 0.736028 0.351428
vt 0.807350 0.351581
vt 0.827080 0.351624
vt 0.898403 0.351778
vt 0.827038 0.371354
vt 0.907127 0.135189
vt 0.902765 0.130733
vt 0.925836 0.096823
vt 0.930229 0.100414
vt 0.741955 0.128065
vt 0.756973 0.138788
vt 0.942995 0.107463
vt 0.714748 0.341048
vt 0.712286 0.095373
vt 0.717096 0.091210
vt 0.969483 0.317485
vt 0.979771 0.338809
vt 0.919727 0.341490
vt 0.697625 0.103806
vt 0.888322 0.140530
vt 0.890582 0.146812
vt 0.665096 0.316829
vt 0.654716 0.338108
vt 0.948974 0.109485
vt 0.692119 0.105886
vt 0.660195 0.232572
vt 0.666459 0.234908
vt 0.665597 0.237002
vt 0.659988 0.235872
vt 0.665823 0.239074
vt 0.661817 0.239574
vt 0.667279 0.241373
vt 0.665827 0.242238
vt 0.974173 0.468826
vt 0.964184 0.473645
vt 0.959935 0.472079
vt 0.975591 0.464525
vt 0.956445 0.470146
vt 0.976251 0.460591
vt 0.954270 0.467578
vt 0.975594 0.457290
vt 0.674190 0.248127
vt 0.674296 0.246498
vt 0.676963 0.246990
vt 0.678085 0.250765
vt 0.679011 0.246408
vt 0.682087 0.251082
vt 0.680759 0.244836
vt 0.685000 0.249776
vt 0.715106 0.088918
vt 0.710825 0.093129
vt 0.709346 0.091605
vt 0.712508 0.087429
vt 0.707463 0.090972
vt 0.708712 0.087413
vt 0.704851 0.091271
vt 0.704760 0.089652
vt 0.984237 0.317354
vt 0.989056 0.327343
vt 0.987489 0.331592
vt 0.979936 0.315936
vt 0.985556 0.335082
vt 0.976001 0.315277
vt 0.982988 0.337257
vt 0.972701 0.315933
vt 0.696108 0.094829
vt 0.697508 0.095477
vt 0.696090 0.097627
vt 0.692534 0.097272
vt 0.695805 0.099575
vt 0.690963 0.100451
vt 0.696413 0.101609
vt 0.691079 0.103210
vt 0.972197 0.238206
vt 0.970875 0.237558
vt 0.972185 0.235501
vt 0.975746 0.235846
vt 0.972384 0.233587
vt 0.977390 0.232571
vt 0.971637 0.231587
vt 0.977288 0.229649
vt 0.658382 0.456606
vt 0.679662 0.466986
vt 0.677476 0.469544
vt 0.657712 0.459904
vt 0.673978 0.471462
vt 0.658354 0.463841
vt 0.669722 0.473010
vt 0.659754 0.468149
vt 0.955077 0.244515
vt 0.958748 0.240291
vt 0.960174 0.241639
vt 0.957564 0.245693
vt 0.961932 0.242126
vt 0.961021 0.245449
vt 0.964287 0.241716
vt 0.964472 0.243176
vt 0.936509 0.095119
vt 0.936603 0.096470
vt 0.934344 0.096319
vt 0.933070 0.093362
vt 0.932701 0.096971
vt 0.929826 0.093479
vt 0.931378 0.098396
vt 0.927615 0.094770
vt 0.661885 0.315263
vt 0.651506 0.336542
vt 0.648948 0.334356
vt 0.658588 0.314592
vt 0.647030 0.330858
vt 0.654651 0.315235
vt 0.645481 0.326602
vt 0.650343 0.316634
vt 0.949713 0.106594
vt 0.944139 0.105359
vt 0.944677 0.103507
vt 0.949499 0.103819
vt 0.944284 0.101797
vt 0.947566 0.100947
vt 0.942843 0.100048
vt 0.943950 0.099170
vt 0.673557 0.247510
vt 0.666540 0.242384
vt 0.696902 0.094418
vt 0.704244 0.090212
vt 0.971475 0.238508
vt 0.964886 0.242666
vt 0.937119 0.095570
vt 0.943359 0.099148
vt 0.680296 0.560458
vt 0.989679 0.560458
vt 0.989679 0.561186
vt 0.680296 0.561186
vt 0.989679 0.561913
vt 0.680296 0.561913
vt 0.989679 0.583409
vt 0.680296 0.583409
vt 0.680296 0.582682
vt 0.989679 0.582682
vt 0.680296 0.581954
vt 0.989679 0.581954
vt 0.989679 0.518922
vt 0.680296 0.518922
vt 0.680296 0.518194
vt 0.989679 0.518194
vt 0.680296 0.517466
vt 0.989679 0.517466
vt 0.989679 0.540417
vt 0.680296 0.540418
vt 0.680296 0.539690
vt 0.989679 0.539690
vt 0.680296 0.538962
vt 0.989679 0.538962
vt 0.680296 0.497426
vt 0.989679 0.497426
s 1
f 1/1/1 3/2/1 7/3/1 5/4/1
f 6/5/2 8/6/2 4/7/2 2/8/2
f 10/9/3 11/10/4 12/11/5 9/12/6
f 14/13/7 15/14/8 16/15/9 13/16/10
f 18/17/11 10/9/3 9/12/6 17/18/12
f 15/14/8 19/19/13 20/20/14 16/15/9
f 22/21/15 18/17/11 17/18/12 21/22/16
f 19/19/13 23/23/17 24/24/18 20/20/14
f 26/25/19 22/21/15 21/22/16 25/26/20
f 23/23/17 27/27/21 28/28/22 24/24/18
f 30/29/23 26/25/19 25/26/20 29/30/24
f 27/27/21 31/31/25 32/32/26 28/28/22
f 34/33/27 35/34/28 36/35/29 33/36/30
f 38/37/31 39/38/32 40/39/33 37/40/34
f 42/41/35 34/33/27 33/36/30 41/42/36
f 39/38/32 43/43/37 44/44/38 40/39/33
f 46/45/39 42/41/35 41/42/36 45/46/40
f 43/43/37 47/47/41 48/48/42 44/44/38
f 50/49/43 46/45/39 45/46/40 49/50/44
f 47/47/41 51/51/45 52/52/46 48/48/42
f 54/53/47 50/49/43 49/50/44 53/54/48
f 51/51/45 55/55/49 56/56/50 52/52/46
f 58/57/51 59/58/52 60/59/53 57/60/54
f 62/61/55 63/62/56 64/63/57 61/64/58
f 66/65/59 58/57/51 57/60/54 65/66/60
f 63/62/56 67/67/61 68/68/62 64/63/57
f 70/69/63 66/65/59 65/66/60 69/70/64
f 67/67/61 71/71/65 72/72/66 68/68/62
f 74/73/67 70/69/63 69/70/64 73/74/68
f 71/71/65 75/75/69 76/76/70 72/72/66
f 78/77/71 74/73/67 73/74/68 77/78/72
f 75/75/69 79/79/73 80/80/74 76/76/70
f 82/81/75 83/82/76 84/83/77 81/84/78
f 86/85/79 87/86/80 88/87/81 85/88/82
f 90/89/83 82/81/75 81/84/78 89/90/84
f 87/86/80 91/91/85 92/92/86 88/87/81
f 94/93/87 90/89/83 89/90/84 93/94/88
f 91/91/85 95/95/89 96/96/90 92/92/86
f 98/97/91 94/93/87 93/94/88 97/98/92
f 95/95/89 99/99/93 100/100/94 96/96/90
f 102/101/95 98/97/91 97/98/92 101/102/96
f 99/99/93 103/103/97 104/104/98 100/100/94
f 29/105/24 56/106/50 55/55/49 30/29/23
f 37/107/34 80/108/74 79/79/73 38/37/31
f 61/109/58 104/110/98 103/103/97 62/61/55
f 85/111/82 12/112/5 11/10/4 86/85/79
f 31/31/25 54/53/47 53/54/48 32/32/26
f 83/82/76 14/13/7 13/16/10 84/83/77
f 101/102/96 60/59/53 59/58/52 102/101/95
f 77/78/72 36/35/29 35/34/28 78/77/71
f 1/1/1 11/10/1 10/9/1
f 12/11/99 13/113/99 16/114/100 9/12/100
f 9/12/100 16/114/100 20/115/101 17/18/101
f 1/1/1 10/9/1 18/17/1
f 85/111/102 84/116/102 13/117/99 12/112/99
f 1/1/1 5/4/1 86/85/1 11/10/1
f 6/5/2 2/8/2 14/13/2 83/82/2
f 2/8/2 15/14/2 14/13/2
f 2/8/2 19/19/2 15/14/2
f 17/18/101 20/115/101 24/118/103 21/22/103
f 1/1/1 18/17/1 22/21/1
f 2/8/2 23/23/2 19/19/2
f 21/22/103 24/118/103 28/119/104 25/26/104
f 1/1/1 22/21/1 26/25/1
f 2/8/2 27/27/2 23/23/2
f 25/26/104 28/119/104 32/120/105 29/30/105
f 1/1/1 26/25/1 30/29/1
f 2/8/2 31/31/2 27/27/2
f 29/105/105 32/121/105 53/122/106 56/106/106
f 3/2/1 1/1/1 30/29/1 55/55/1
f 2/8/2 4/7/2 54/53/2 31/31/2
f 4/7/2 35/34/2 34/33/2
f 36/123/107 37/40/107 40/39/108 33/124/108
f 33/124/108 40/39/108 44/44/109 41/125/109
f 4/7/2 34/33/2 42/41/2
f 37/107/107 36/126/107 77/127/110 80/108/110
f 4/7/2 8/6/2 78/77/2 35/34/2
f 7/3/1 3/2/1 38/37/1 79/79/1
f 3/2/1 39/38/1 38/37/1
f 3/2/1 43/43/1 39/38/1
f 41/125/109 44/44/109 48/48/111 45/128/111
f 4/7/2 42/41/2 46/45/2
f 3/2/1 47/47/1 43/43/1
f 45/128/111 48/48/111 52/52/112 49/129/112
f 4/7/2 46/45/2 50/49/2
f 3/2/1 51/51/1 47/47/1
f 49/129/112 52/52/112 56/56/106 53/130/106
f 4/7/2 50/49/2 54/53/2
f 3/2/1 55/55/1 51/51/1
f 8/6/2 59/58/2 58/57/2
f 60/131/113 61/64/113 64/63/114 57/132/114
f 57/132/114 64/63/114 68/68/115 65/133/115
f 8/6/2 58/57/2 66/65/2
f 61/109/113 60/134/113 101/135/116 104/110/116
f 8/6/2 6/5/2 102/101/2 59/58/2
f 5/4/1 7/3/1 62/61/1 103/103/1
f 7/3/1 63/62/1 62/61/1
f 7/3/1 67/67/1 63/62/1
f 65/133/115 68/68/115 72/72/117 69/136/117
f 8/6/2 66/65/2 70/69/2
f 7/3/1 71/71/1 67/67/1
f 69/136/117 72/72/117 76/76/118 73/137/118
f 8/6/2 70/69/2 74/73/2
f 7/3/1 75/75/1 71/71/1
f 73/137/118 76/76/118 80/80/110 77/138/110
f 8/6/2 74/73/2 78/77/2
f 7/3/1 79/79/1 75/75/1
f 6/5/2 83/82/2 82/81/2
f 84/139/102 85/88/102 88/87/119 81/140/119
f 81/140/119 88/87/119 92/92/120 89/141/120
f 6/5/2 82/81/2 90/89/2
f 5/4/1 87/86/1 86/85/1
f 5/4/1 91/91/1 87/86/1
f 89/141/120 92/92/120 96/96/121 93/142/121
f 6/5/2 90/89/2 94/93/2
f 5/4/1 95/95/1 91/91/1
f 93/142/121 96/96/121 100/100/122 97/143/122
f 6/5/2 94/93/2 98/97/2
f 5/4/1 99/99/1 95/95/1
f 97/143/122 100/100/122 104/104/116 101/144/116
f 6/5/2 98/97/2 102/101/2
f 5/4/1 103/103/1 99/99/1
f 105/145/123 144/146/123 109/147/123 108/148/123
f 106/149/124 107/150/124 119/151/124 118/152/124
f 105/145/1 108/148/1 106/149/1 118/152/1
f 109/153/2 144/154/2 119/155/2 107/156/2
f 128/157/1 126/158/1 140/159/1 138/160/1
f 140/159/125 112/161/125 113/162/125 141/163/125
f 110/164/126 126/158/126 127/165/126 111/166/126
f 140/159/1 126/158/1 110/164/1 112/161/1
f 113/167/2 111/168/2 127/169/2 141/170/2
f 126/158/127 134/171/127 114/172/127 127/165/127
f 115/173/128 117/174/128 137/175/128 135/176/128
f 116/177/127 114/172/127 134/171/127 136/178/127
f 116/179/2 119/155/2 121/180/2 117/181/2
f 115/182/2 129/183/2 127/169/2 114/184/2
f 142/185/129 143/186/129 125/187/129 124/188/129
f 128/157/130 138/160/131 139/189/131 129/190/130
f 142/185/1 124/188/1 122/191/1 105/145/1
f 143/192/2 121/180/2 119/155/2 144/154/2
f 138/160/131 132/193/131 133/194/131 139/189/131
f 133/195/2 131/196/2 141/170/2 139/197/2
f 138/160/1 140/159/1 130/198/1 132/193/1
f 139/197/2 141/170/2 127/169/2 129/183/2
f 116/177/127 136/178/127 118/152/127 119/151/127
f 117/174/128 121/199/132 120/200/132 137/175/128
f 129/190/130 115/173/128 135/176/128 128/157/130
f 128/157/1 135/176/1 134/171/1 126/158/1
f 137/175/1 136/178/1 134/171/1 135/176/1
f 118/152/1 136/178/1 137/175/1 120/200/1
f 125/201/2 143/192/2 144/154/2 123/202/2
f 120/200/1 142/185/1 105/145/1 118/152/1
f 120/200/132 121/199/132 143/186/129 142/185/129
f 122/191/133 123/203/133 144/146/133 105/145/133
f 130/198/134 140/159/134 141/163/134 131/204/134
f 146/205/135 150/206/136 152/207/137 148/208/138
f 148/208/138 152/207/137 151/209/139 147/210/140
f 147/210/140 151/209/139 149/211/141 145/212/142
f 145/213/142 157/214/143 159/215/144 147/216/140
f 147/216/145 159/215/145 160/217/146 148/218/146
f 148/218/146 160/217/146 158/219/147 146/220/147
f 157/221/143 154/222/148 156/223/149 159/224/144
f 159/224/144 156/223/149 155/225/150 160/226/150
f 160/226/151 155/225/151 153/227/152 158/228/153
f 162/229/154 166/230/155 168/231/156 164/232/156
f 164/232/157 168/231/157 167/233/157 163/234/157
f 163/234/158 167/233/159 165/235/160 161/236/161
f 161/237/161 173/238/162 175/239/163 163/240/158
f 163/240/164 175/239/164 176/241/165 164/242/165
f 164/242/165 176/241/165 174/243/166 162/244/166
f 173/245/162 170/246/136 172/247/137 175/248/163
f 175/248/163 172/247/137 171/249/139 176/250/167
f 176/250/167 171/249/139 169/251/141 174/252/168
f 178/253/169 182/254/170 184/255/171 180/256/172
f 180/256/173 184/255/173 183/257/174 179/258/175
f 179/258/175 183/257/174 181/259/176 177/260/177
f 177/261/178 189/262/178 191/263/179 179/264/179
f 179/264/180 191/263/180 192/265/181 180/266/172
f 180/266/172 192/265/181 190/267/182 178/268/169
f 189/269/183 186/270/184 188/271/185 191/272/185
f 191/272/186 188/271/186 187/273/187 192/274/181
f 192/274/181 187/273/187 185/275/188 190/276/182
f 194/277/189 198/278/190 200/279/191 196/280/192
f 196/280/193 200/279/193 199/281/193 195/282/193
f 195/282/194 199/281/194 197/283/195 193/284/196
f 193/285/197 205/286/197 207/287/198 195/288/198
f 195/288/199 207/287/199 208/289/199 196/290/199
f 196/290/192 208/289/200 206/291/201 194/292/189
f 205/293/202 202/294/170 204/295/203 207/296/204
f 207/296/204 204/295/203 203/297/174 208/298/200
f 208/298/200 203/297/174 201/299/176 206/300/201
f 113/162/125 112/161/125 150/206/136 146/205/135
f 149/211/141 154/222/148 157/301/143 145/302/142
f 111/168/2 113/167/2 146/220/147 158/219/147
f 112/161/1 110/164/1 153/227/1 155/225/1 156/223/1 154/222/1 149/211/1 151/209/1 152/207/1 150/206/1
f 110/164/126 111/166/126 158/228/153 153/227/152
f 133/194/131 132/193/131 166/230/155 162/229/154
f 165/235/160 170/246/136 173/303/162 161/304/161
f 131/196/2 133/195/2 162/244/166 174/243/166
f 132/193/1 130/198/1 169/251/1 171/249/1 172/247/1 170/246/1 165/235/1 167/233/1 168/231/1 166/230/1
f 130/198/134 131/204/134 174/252/168 169/251/141
f 108/148/123 109/147/123 177/260/177 181/259/176
f 182/254/170 178/305/169 190/306/182 185/275/188
f 109/153/2 107/156/2 189/262/178 177/261/178
f 106/149/1 108/148/1 181/259/1 183/257/1 184/255/1 182/254/1 185/275/1 187/273/1 188/271/1 186/270/1
f 107/150/124 106/149/124 186/270/184 189/269/183
f 124/188/129 125/187/129 193/284/196 197/283/195
f 198/278/190 194/307/189 206/308/201 201/299/176
f 125/201/2 123/202/2 205/286/197 193/285/197
f 122/191/1 124/188/1 197/283/1 199/281/1 200/279/1 198/278/1 201/299/1 203/297/1 204/295/1 202/294/1
f 123/203/133 122/191/133 202/294/170 205/293/202
f 227/309/205 210/310/205 211/311/206 229/312/206
f 229/312/207 211/311/207 209/313/208 228/314/208
f 212/315/209 231/316/209 232/317/210 214/318/210
f 214/318/211 232/317/211 230/319/212 213/320/212
f 218/321/213 225/322/213 226/323/214 220/324/214
f 220/324/215 226/323/215 224/325/216 219/326/216
f 215/327/217 222/328/217 223/329/218 217/330/218
f 217/330/219 223/329/219 221/331/220 216/332/220
f 222/328/217 215/327/217 210/310/205 227/309/205
f 228/314/208 209/313/208 213/320/212 230/319/212
f 231/333/209 212/334/209 219/326/216 224/325/216
f 225/322/213 218/321/213 216/332/220 221/331/220
f 114/184/2 116/179/2 117/181/2 115/182/2
