# Blender 4.5.5 LTS
# www.blender.org
o V_HLiang
v 0.972000 -0.291104 1.899115
v 0.971115 -0.291104 1.900000
v 0.971115 -0.291104 1.890000
v 0.972000 -0.291104 1.890885
v 0.971115 0.291104 1.900000
v 0.972000 0.291104 1.899115
v 0.972000 0.291104 1.890885
v 0.971115 0.291104 1.890000
v 0.942885 -0.291104 1.900000
v 0.942000 -0.291104 1.899115
v 0.942000 -0.291104 1.890885
v 0.942885 -0.291104 1.890000
v 0.942000 0.291104 1.899115
v 0.942885 0.291104 1.900000
v 0.942885 0.291104 1.890000
v 0.942000 0.291104 1.890885
v 0.972000 -0.291104 1.004115
v 0.971115 -0.291104 1.005000
v 0.971115 -0.291104 0.995000
v 0.972000 -0.291104 0.995885
v 0.971115 0.291104 1.005000
v 0.972000 0.291104 1.004115
v 0.972000 0.291104 0.995885
v 0.971115 0.291104 0.995000
v 0.942885 -0.291104 1.005000
v 0.942000 -0.291104 1.004115
v 0.942000 -0.291104 0.995885
v 0.942885 -0.291104 0.995000
v 0.942000 0.291104 1.004115
v 0.942885 0.291104 1.005000
v 0.942885 0.291104 0.995000
v 0.942000 0.291104 0.995885
v 0.972000 -0.291104 0.109115
v 0.971115 -0.291104 0.110000
v 0.971115 -0.291104 0.100000
v 0.972000 -0.291104 0.100885
v 0.971115 0.291104 0.110000
v 0.972000 0.291104 0.109115
v 0.972000 0.291104 0.100885
v 0.971115 0.291104 0.100000
v 0.942885 -0.291104 0.110000
v 0.942000 -0.291104 0.109115
v 0.942000 -0.291104 0.100885
v 0.942885 -0.291104 0.100000
v 0.942000 0.291104 0.109115
v 0.942885 0.291104 0.110000
v 0.942885 0.291104 0.100000
v 0.942000 0.291104 0.100885
v -0.972000 -0.291104 1.899115
v -0.971115 -0.291104 1.900000
v -0.971115 -0.291104 1.890000
v -0.972000 -0.291104 1.890885
v -0.971115 0.291104 1.900000
v -0.972000 0.291104 1.899115
v -0.972000 0.291104 1.890885
v -0.971115 0.291104 1.890000
v -0.942885 -0.291104 1.900000
v -0.942000 -0.291104 1.899115
v -0.942000 -0.291104 1.890885
v -0.942885 -0.291104 1.890000
v -0.942000 0.291104 1.899115
v -0.942885 0.291104 1.900000
v -0.942885 0.291104 1.890000
v -0.942000 0.291104 1.890885
v -0.972000 -0.291104 1.004115
v -0.971115 -0.291104 1.005000
v -0.971115 -0.291104 0.995000
v -0.972000 -0.291104 0.995885
v -0.971115 0.291104 1.005000
v -0.972000 0.291104 1.004115
v -0.972000 0.291104 0.995885
v -0.971115 0.291104 0.995000
v -0.942885 -0.291104 1.005000
v -0.942000 -0.291104 1.004115
v -0.942000 -0.291104 0.995885
v -0.942885 -0.291104 0.995000
v -0.942000 0.291104 1.004115
v -0.942885 0.291104 1.005000
v -0.942885 0.291104 0.995000
v -0.942000 0.291104 0.995885
v -0.972000 -0.291104 0.109115
v -0.971115 -0.291104 0.110000
v -0.971115 -0.291104 0.100000
v -0.972000 -0.291104 0.100885
v -0.971115 0.291104 0.110000
v -0.972000 0.291104 0.109115
v -0.972000 0.291104 0.100885
v -0.971115 0.291104 0.100000
v -0.942885 -0.291104 0.110000
v -0.942000 -0.291104 0.109115
v -0.942000 -0.291104 0.100885
v -0.942885 -0.291104 0.100000
v -0.942000 0.291104 0.109115
v -0.942885 0.291104 0.110000
v -0.942885 0.291104 0.100000
v -0.942000 0.291104 0.100885
vn 0.7071 -0.0000 0.7071
vn 0.7070 -0.0000 -0.7072
vn -0.7071 -0.0000 0.7071
vn -0.7070 -0.0000 -0.7072
vn -0.0000 -0.0000 1.0000
vn 1.0000 -0.0000 -0.0000
vn -0.0000 -1.0000 -0.0000
vn -0.0000 -0.0000 -1.0000
vn -0.0000 1.0000 -0.0000
vn -1.0000 -0.0000 -0.0000
vn 0.7071 -0.0000 -0.7071
vn -0.7071 -0.0000 -0.7071
vt 0.375000 0.252143
vt 0.375000 0.000000
vt 0.397131 0.000000
vt 0.397131 0.250000
vt 0.867622 0.750000
vt 0.867622 0.500000
vt 0.875000 0.500000
vt 0.875000 0.750000
vt 0.367749 0.750126
vt 0.367748 0.499874
vt 0.397131 0.500000
vt 0.397131 0.750000
vt 0.632252 0.499874
vt 0.632252 0.750126
vt 0.602869 0.750000
vt 0.602869 0.500000
vt 0.132378 0.500000
vt 0.132378 0.750000
vt 0.602869 0.000000
vt 0.602869 0.250000
vt 0.625000 0.992622
vt 0.602869 1.000000
vt 0.397131 1.000000
vt 0.375000 0.992622
vt 0.625000 0.257378
s 1
f 5/1/1 2/2/1 1/3/1 6/4/1
f 3/5/2 8/6/2 7/7/2 4/8/2
f 9/9/3 14/10/3 13/11/3 10/12/3
f 15/13/4 12/14/4 11/15/4 16/16/4
f 5/17/5 14/10/5 9/9/5 2/18/5
f 1/3/6 4/19/6 7/20/6 6/4/6
f 9/9/7 10/12/7 11/15/7 12/14/7 3/21/7 4/22/7 1/23/7 2/24/7
f 15/13/8 8/6/8 3/5/8 12/14/8
f 5/1/9 6/4/9 7/20/9 8/25/9 15/13/9 16/16/9 13/11/9 14/10/9
f 13/11/10 16/16/10 11/15/10 10/12/10
f 21/1/1 18/2/1 17/3/1 22/4/1
f 19/5/11 24/6/11 23/7/11 20/8/11
f 25/9/3 30/10/3 29/11/3 26/12/3
f 31/13/12 28/14/12 27/15/12 32/16/12
f 21/17/5 30/10/5 25/9/5 18/18/5
f 17/3/6 20/19/6 23/20/6 22/4/6
f 25/9/7 26/12/7 27/15/7 28/14/7 19/21/7 20/22/7 17/23/7 18/24/7
f 31/13/8 24/6/8 19/5/8 28/14/8
f 21/1/9 22/4/9 23/20/9 24/25/9 31/13/9 32/16/9 29/11/9 30/10/9
f 29/11/10 32/16/10 27/15/10 26/12/10
f 37/1/1 34/2/1 33/3/1 38/4/1
f 35/5/11 40/6/11 39/7/11 36/8/11
f 41/9/3 46/10/3 45/11/3 42/12/3
f 47/13/12 44/14/12 43/15/12 48/16/12
f 37/17/5 46/10/5 41/9/5 34/18/5
f 33/3/6 36/19/6 39/20/6 38/4/6
f 41/9/7 42/12/7 43/15/7 44/14/7 35/21/7 36/22/7 33/23/7 34/24/7
f 47/13/8 40/6/8 35/5/8 44/14/8
f 37/1/9 38/4/9 39/20/9 40/25/9 47/13/9 48/16/9 45/11/9 46/10/9
f 45/11/10 48/16/10 43/15/10 42/12/10
f 53/1/3 54/4/3 49/3/3 50/2/3
f 51/5/4 52/8/4 55/7/4 56/6/4
f 57/9/1 58/12/1 61/11/1 62/10/1
f 63/13/2 64/16/2 59/15/2 60/14/2
f 53/17/5 50/18/5 57/9/5 62/10/5
f 49/3/10 54/4/10 55/20/10 52/19/10
f 57/9/7 50/24/7 49/23/7 52/22/7 51/21/7 60/14/7 59/15/7 58/12/7
f 63/13/8 60/14/8 51/5/8 56/6/8
f 53/1/9 62/10/9 61/11/9 64/16/9 63/13/9 56/25/9 55/20/9 54/4/9
f 61/11/6 58/12/6 59/15/6 64/16/6
f 69/1/3 70/4/3 65/3/3 66/2/3
f 67/5/12 68/8/12 71/7/12 72/6/12
f 73/9/1 74/12/1 77/11/1 78/10/1
f 79/13/11 80/16/11 75/15/11 76/14/11
f 69/17/5 66/18/5 73/9/5 78/10/5
f 65/3/10 70/4/10 71/20/10 68/19/10
f 73/9/7 66/24/7 65/23/7 68/22/7 67/21/7 76/14/7 75/15/7 74/12/7
f 79/13/8 76/14/8 67/5/8 72/6/8
f 69/1/9 78/10/9 77/11/9 80/16/9 79/13/9 72/25/9 71/20/9 70/4/9
f 77/11/6 74/12/6 75/15/6 80/16/6
f 85/1/3 86/4/3 81/3/3 82/2/3
f 83/5/12 84/8/12 87/7/12 88/6/12
f 89/9/1 90/12/1 93/11/1 94/10/1
f 95/13/11 96/16/11 91/15/11 92/14/11
f 85/17/5 82/18/5 89/9/5 94/10/5
f 81/3/10 86/4/10 87/20/10 84/19/10
f 89/9/7 82/24/7 81/23/7 84/22/7 83/21/7 92/14/7 91/15/7 90/12/7
f 95/13/8 92/14/8 83/5/8 88/6/8
f 85/1/9 94/10/9 93/11/9 96/16/9 95/13/9 88/25/9 87/20/9 86/4/9
f 93/11/6 90/12/6 91/15/6 96/16/6
