# Blender 4.5.5 LTS
# www.blender.org
o V_XLiang
v -0.015000 0.415000 -0.001143
v -0.013857 0.415000 -0.000000
v -0.013857 0.415000 -0.010000
v -0.015000 0.415000 -0.008858
v -0.013858 -0.415000 0.000000
v -0.015000 -0.415000 -0.001142
v -0.015000 -0.415000 -0.008857
v -0.013858 -0.415000 -0.010000
v 0.013858 0.415000 -0.000000
v 0.015000 0.415000 -0.001143
v 0.015000 0.415000 -0.008858
v 0.013858 0.415000 -0.010000
v 0.015000 -0.415000 -0.001142
v 0.013858 -0.415000 0.000000
v 0.013858 -0.415000 -0.010000
v 0.015000 -0.415000 -0.008857
v -1.929000 -0.687358 1.024109
v -1.927858 -0.688498 1.024029
v -1.927858 -0.678522 1.024727
v -1.929000 -0.679662 1.024647
v -1.927858 -0.630600 0.196051
v -1.929000 -0.629461 0.196130
v -1.929000 -0.621764 0.196669
v -1.927858 -0.620625 0.196748
v -1.900142 -0.688498 1.024029
v -1.899000 -0.687358 1.024109
v -1.899000 -0.679662 1.024647
v -1.900142 -0.678522 1.024727
v -1.899000 -0.629461 0.196130
v -1.900142 -0.630600 0.196051
v -1.900142 -0.620625 0.196748
v -1.899000 -0.621764 0.196669
v -1.929000 0.415000 -0.001142
v -1.927857 0.415000 0.000000
v -1.927857 0.415000 -0.010000
v -1.929000 0.415000 -0.008857
v -1.927857 -0.415000 0.000000
v -1.929000 -0.415000 -0.001142
v -1.929000 -0.415000 -0.008857
v -1.927857 -0.415000 -0.010000
v -1.900142 0.415000 0.000000
v -1.899000 0.415000 -0.001142
v -1.899000 0.415000 -0.008857
v -1.900142 0.415000 -0.010000
v -1.899000 -0.415000 -0.001142
v -1.900142 -0.415000 0.000000
v -1.900142 -0.415000 -0.010000
v -1.899000 -0.415000 -0.008857
v -0.015000 -0.687359 1.024108
v -0.013858 -0.688498 1.024029
v -0.013858 -0.678523 1.024726
v -0.015000 -0.679662 1.024647
v -0.013858 -0.630601 0.196051
v -0.015000 -0.629461 0.196130
v -0.015000 -0.621764 0.196668
v -0.013858 -0.620625 0.196748
v 0.013858 -0.688498 1.024029
v 0.015000 -0.687359 1.024108
v 0.015000 -0.679662 1.024647
v 0.013858 -0.678523 1.024726
v 0.015000 -0.629461 0.196130
v 0.013858 -0.630601 0.196051
v 0.013858 -0.620625 0.196748
v 0.015000 -0.621764 0.196668
vn -0.7071 -0.0000 0.7071
vn -0.7071 -0.0000 -0.7071
vn 0.7071 -0.0000 0.7071
vn 0.7071 -0.0000 -0.7071
vn -0.0000 -0.0000 1.0000
vn -1.0000 -0.0000 -0.0000
vn -0.0000 1.0000 -0.0000
vn -0.0000 -0.0000 -1.0000
vn -0.0000 -1.0000 -0.0000
vn 1.0000 -0.0000 -0.0000
vn -0.7071 -0.7054 -0.0493
vn -0.7071 0.7054 0.0493
vn 0.7071 -0.7054 -0.0493
vn 0.7071 0.7054 0.0493
vn -0.0000 -0.9976 -0.0698
vn -0.0000 -0.0698 0.9976
vn -0.0000 0.9976 0.0698
vn -0.0000 0.0698 -0.9976
vt 0.375000 0.251772
vt 0.375000 0.000000
vt 0.403561 0.000000
vt 0.403561 0.250000
vt 0.865480 0.750000
vt 0.865480 0.500000
vt 0.875000 0.500000
vt 0.875000 0.750000
vt 0.365598 0.750118
vt 0.365598 0.499882
vt 0.403561 0.500000
vt 0.403561 0.750000
vt 0.634402 0.499882
vt 0.634402 0.750118
vt 0.596439 0.750000
vt 0.596439 0.500000
vt 0.134520 0.500000
vt 0.134520 0.750000
vt 0.596439 0.000000
vt 0.596439 0.250000
vt 0.625000 0.990480
vt 0.596439 1.000000
vt 0.403561 1.000000
vt 0.375000 0.990480
vt 0.625000 0.259520
s 1
f 5/1/1 2/2/1 1/3/1 6/4/1
f 3/5/2 8/6/2 7/7/2 4/8/2
f 9/9/3 14/10/3 13/11/3 10/12/3
f 15/13/4 12/14/4 11/15/4 16/16/4
f 5/17/5 14/10/5 9/9/5 2/18/5
f 1/3/6 4/19/6 7/20/6 6/4/6
f 9/9/7 10/12/7 11/15/7 12/14/7 3/21/7 4/22/7 1/23/7 2/24/7
f 15/13/8 8/6/8 3/5/8 12/14/8
f 5/1/9 6/4/9 7/20/9 8/25/9 15/13/9 16/16/9 13/11/9 14/10/9
f 13/11/10 16/16/10 11/15/10 10/12/10
f 21/1/11 18/2/11 17/3/11 22/4/11
f 19/5/12 24/6/12 23/7/12 20/8/12
f 25/9/13 30/10/13 29/11/13 26/12/13
f 31/13/14 28/14/14 27/15/14 32/16/14
f 21/17/15 30/10/15 25/9/15 18/18/15
f 17/3/6 20/19/6 23/20/6 22/4/6
f 25/9/16 26/12/16 27/15/16 28/14/16 19/21/16 20/22/16 17/23/16 18/24/16
f 31/13/17 24/6/17 19/5/17 28/14/17
f 21/1/18 22/4/18 23/20/18 24/25/18 31/13/18 32/16/18 29/11/18 30/10/18
f 29/11/10 32/16/10 27/15/10 26/12/10
f 37/1/1 34/2/1 33/3/1 38/4/1
f 35/5/2 40/6/2 39/7/2 36/8/2
f 41/9/3 46/10/3 45/11/3 42/12/3
f 47/13/4 44/14/4 43/15/4 48/16/4
f 37/17/5 46/10/5 41/9/5 34/18/5
f 33/3/6 36/19/6 39/20/6 38/4/6
f 41/9/7 42/12/7 43/15/7 44/14/7 35/21/7 36/22/7 33/23/7 34/24/7
f 47/13/8 40/6/8 35/5/8 44/14/8
f 37/1/9 38/4/9 39/20/9 40/25/9 47/13/9 48/16/9 45/11/9 46/10/9
f 45/11/10 48/16/10 43/15/10 42/12/10
f 53/1/11 50/2/11 49/3/11 54/4/11
f 51/5/12 56/6/12 55/7/12 52/8/12
f 57/9/13 62/10/13 61/11/13 58/12/13
f 63/13/14 60/14/14 59/15/14 64/16/14
f 53/17/15 62/10/15 57/9/15 50/18/15
f 49/3/6 52/19/6 55/20/6 54/4/6
f 57/9/16 58/12/16 59/15/16 60/14/16 51/21/16 52/22/16 49/23/16 50/24/16
f 63/13/17 56/6/17 51/5/17 60/14/17
f 53/1/18 54/4/18 55/20/18 56/25/18 63/13/18 64/16/18 61/11/18 62/10/18
f 61/11/10 64/16/10 59/15/10 58/12/10
