# Blender 4.5.5 LTS
# www.blender.org
o V_Zhu
v -0.935415 -0.270000 0.000000
v -0.978586 -0.270000 0.000000
v -0.978586 -0.270000 2.000000
v -0.935415 -0.270000 2.000000
v -0.978586 -0.300000 0.000000
v -0.935415 -0.300000 0.000000
v -0.935415 -0.300000 2.000000
v -0.978586 -0.300000 2.000000
v -0.978586 -0.280000 2.000000
v -0.935415 -0.280000 2.000000
v -0.978586 -0.290000 2.000000
v -0.935415 -0.290000 2.000000
v -0.935415 -0.280000 0.000000
v -0.978586 -0.280000 0.000000
v -0.935415 -0.290000 0.000000
v -0.978586 -0.290000 0.000000
v -0.972474 -0.300000 0.000000
v -0.941527 -0.300000 0.000000
v -0.941527 -0.300000 2.000000
v -0.972474 -0.300000 2.000000
v -0.972474 -0.280000 2.000000
v -0.941527 -0.280000 2.000000
v -0.972474 -0.290000 2.000000
v -0.941527 -0.290000 2.000000
v -0.941527 -0.280000 0.000000
v -0.972474 -0.280000 0.000000
v -0.941527 -0.290000 0.000000
v -0.972474 -0.290000 0.000000
v -0.980161 -0.300000 0.000000
v -0.982000 -0.298896 0.000000
v -0.981080 -0.299852 0.000000
v -0.982000 -0.298896 2.000000
v -0.980161 -0.300000 2.000000
v -0.981080 -0.299852 2.000000
v -0.982000 -0.271104 0.000000
v -0.980161 -0.270000 0.000000
v -0.981080 -0.270148 0.000000
v -0.980161 -0.270000 2.000000
v -0.982000 -0.271104 2.000000
v -0.981080 -0.270148 2.000000
v -0.932000 -0.298896 0.000000
v -0.933839 -0.300000 0.000000
v -0.932920 -0.299852 0.000000
v -0.933839 -0.300000 2.000000
v -0.932000 -0.298896 2.000000
v -0.932920 -0.299852 2.000000
v -0.933839 -0.270000 0.000000
v -0.932000 -0.271104 0.000000
v -0.932920 -0.270148 0.000000
v -0.932000 -0.271104 2.000000
v -0.933839 -0.270000 2.000000
v -0.932920 -0.270148 2.000000
v -0.980161 -0.280000 0.000000
v -0.982000 -0.278896 0.000000
v -0.981080 -0.279852 0.000000
v -0.982000 -0.291104 0.000000
v -0.980161 -0.290000 0.000000
v -0.981080 -0.290148 0.000000
v -0.980161 -0.290000 2.000000
v -0.982000 -0.291104 2.000000
v -0.981080 -0.290148 2.000000
v -0.982000 -0.278896 2.000000
v -0.980161 -0.280000 2.000000
v -0.981080 -0.279852 2.000000
v -0.933839 -0.290000 0.000000
v -0.932000 -0.291104 0.000000
v -0.932920 -0.290148 0.000000
v -0.932000 -0.278896 0.000000
v -0.933839 -0.280000 0.000000
v -0.932246 -0.279448 0.000000
v -0.932920 -0.279852 0.000000
v -0.933839 -0.280000 2.000000
v -0.932000 -0.278896 2.000000
v -0.932920 -0.279852 2.000000
v -0.932246 -0.279448 2.000000
v -0.932000 -0.291104 2.000000
v -0.933839 -0.290000 2.000000
v -0.932920 -0.290148 2.000000
v -0.941527 -0.271104 0.000000
v -0.939688 -0.270000 0.000000
v -0.940607 -0.270148 0.000000
v -0.974313 -0.270000 0.000000
v -0.972474 -0.271104 0.000000
v -0.973393 -0.270148 0.000000
v -0.972474 -0.271104 2.000000
v -0.974313 -0.270000 2.000000
v -0.973393 -0.270148 2.000000
v -0.939688 -0.270000 2.000000
v -0.941527 -0.271104 2.000000
v -0.940607 -0.270148 2.000000
v -0.935415 0.270000 0.000000
v -0.978586 0.270000 0.000000
v -0.978586 0.270000 2.000000
v -0.935415 0.270000 2.000000
v -0.978586 0.300000 0.000000
v -0.935415 0.300000 0.000000
v -0.935415 0.300000 2.000000
v -0.978586 0.300000 2.000000
v -0.978586 0.280000 2.000000
v -0.935415 0.280000 2.000000
v -0.978586 0.290000 2.000000
v -0.935415 0.290000 2.000000
v -0.935415 0.280000 0.000000
v -0.978586 0.280000 0.000000
v -0.935415 0.290000 0.000000
v -0.978586 0.290000 0.000000
v -0.972474 0.300000 0.000000
v -0.941527 0.300000 0.000000
v -0.941527 0.300000 2.000000
v -0.972474 0.300000 2.000000
v -0.972474 0.280000 2.000000
v -0.941527 0.280000 2.000000
v -0.972474 0.290000 2.000000
v -0.941527 0.290000 2.000000
v -0.941527 0.280000 0.000000
v -0.972474 0.280000 0.000000
v -0.941527 0.290000 0.000000
v -0.972474 0.290000 0.000000
v -0.980161 0.300000 0.000000
v -0.982000 0.298896 0.000000
v -0.981080 0.299852 0.000000
v -0.982000 0.298896 2.000000
v -0.980161 0.300000 2.000000
v -0.981080 0.299852 2.000000
v -0.982000 0.271104 0.000000
v -0.980161 0.270000 0.000000
v -0.981080 0.270148 0.000000
v -0.980161 0.270000 2.000000
v -0.982000 0.271104 2.000000
v -0.981080 0.270148 2.000000
v -0.932000 0.298896 0.000000
v -0.933839 0.300000 0.000000
v -0.932920 0.299852 0.000000
v -0.933839 0.300000 2.000000
v -0.932000 0.298896 2.000000
v -0.932920 0.299852 2.000000
v -0.933839 0.270000 0.000000
v -0.932000 0.271104 0.000000
v -0.932920 0.270148 0.000000
v -0.932000 0.271104 2.000000
v -0.933839 0.270000 2.000000
v -0.932920 0.270148 2.000000
v -0.980161 0.280000 0.000000
v -0.982000 0.278896 0.000000
v -0.981080 0.279852 0.000000
v -0.982000 0.291104 0.000000
v -0.980161 0.290000 0.000000
v -0.981080 0.290148 0.000000
v -0.980161 0.290000 2.000000
v -0.982000 0.291104 2.000000
v -0.981080 0.290148 2.000000
v -0.982000 0.278896 2.000000
v -0.980161 0.280000 2.000000
v -0.981080 0.279852 2.000000
v -0.933839 0.290000 0.000000
v -0.932000 0.291104 0.000000
v -0.932920 0.290148 0.000000
v -0.932000 0.278896 0.000000
v -0.933839 0.280000 0.000000
v -0.932246 0.279448 0.000000
v -0.932920 0.279852 0.000000
v -0.933839 0.280000 2.000000
v -0.932000 0.278896 2.000000
v -0.932920 0.279852 2.000000
v -0.932246 0.279448 2.000000
v -0.932000 0.291104 2.000000
v -0.933839 0.290000 2.000000
v -0.932920 0.290148 2.000000
v -0.941527 0.271104 0.000000
v -0.939688 0.270000 0.000000
v -0.940607 0.270148 0.000000
v -0.974313 0.270000 0.000000
v -0.972474 0.271104 0.000000
v -0.973393 0.270148 0.000000
v -0.972474 0.271104 2.000000
v -0.974313 0.270000 2.000000
v -0.973393 0.270148 2.000000
v -0.939688 0.270000 2.000000
v -0.941527 0.271104 2.000000
v -0.940607 0.270148 2.000000
v 0.935415 -0.270000 0.000000
v 0.978586 -0.270000 0.000000
v 0.978586 -0.270000 2.000000
v 0.935415 -0.270000 2.000000
v 0.978586 -0.300000 0.000000
v 0.935415 -0.300000 0.000000
v 0.935415 -0.300000 2.000000
v 0.978586 -0.300000 2.000000
v 0.978586 -0.280000 2.000000
v 0.935415 -0.280000 2.000000
v 0.978586 -0.290000 2.000000
v 0.935415 -0.290000 2.000000
v 0.935415 -0.280000 0.000000
v 0.978586 -0.280000 0.000000
v 0.935415 -0.290000 0.000000
v 0.978586 -0.290000 0.000000
v 0.972474 -0.300000 0.000000
v 0.941527 -0.300000 0.000000
v 0.941527 -0.300000 2.000000
v 0.972474 -0.300000 2.000000
v 0.972474 -0.280000 2.000000
v 0.941527 -0.280000 2.000000
v 0.972474 -0.290000 2.000000
v 0.941527 -0.290000 2.000000
v 0.941527 -0.280000 0.000000
v 0.972474 -0.280000 0.000000
v 0.941527 -0.290000 0.000000
v 0.972474 -0.290000 0.000000
v 0.980161 -0.300000 0.000000
v 0.982000 -0.298896 0.000000
v 0.981080 -0.299852 0.000000
v 0.982000 -0.298896 2.000000
v 0.980161 -0.300000 2.000000
v 0.981080 -0.299852 2.000000
v 0.982000 -0.271104 0.000000
v 0.980161 -0.270000 0.000000
v 0.981080 -0.270148 0.000000
v 0.980161 -0.270000 2.000000
v 0.982000 -0.271104 2.000000
v 0.981080 -0.270148 2.000000
v 0.932000 -0.298896 0.000000
v 0.933839 -0.300000 0.000000
v 0.932920 -0.299852 0.000000
v 0.933839 -0.300000 2.000000
v 0.932000 -0.298896 2.000000
v 0.932920 -0.299852 2.000000
v 0.933839 -0.270000 0.000000
v 0.932000 -0.271104 0.000000
v 0.932920 -0.270148 0.000000
v 0.932000 -0.271104 2.000000
v 0.933839 -0.270000 2.000000
v 0.932920 -0.270148 2.000000
v 0.980161 -0.280000 0.000000
v 0.982000 -0.278896 0.000000
v 0.981080 -0.279852 0.000000
v 0.982000 -0.291104 0.000000
v 0.980161 -0.290000 0.000000
v 0.981080 -0.290148 0.000000
v 0.980161 -0.290000 2.000000
v 0.982000 -0.291104 2.000000
v 0.981080 -0.290148 2.000000
v 0.982000 -0.278896 2.000000
v 0.980161 -0.280000 2.000000
v 0.981080 -0.279852 2.000000
v 0.933839 -0.290000 0.000000
v 0.932000 -0.291104 0.000000
v 0.932920 -0.290148 0.000000
v 0.932000 -0.278896 0.000000
v 0.933839 -0.280000 0.000000
v 0.932246 -0.279448 0.000000
v 0.932920 -0.279852 0.000000
v 0.933839 -0.280000 2.000000
v 0.932000 -0.278896 2.000000
v 0.932920 -0.279852 2.000000
v 0.932246 -0.279448 2.000000
v 0.932000 -0.291104 2.000000
v 0.933839 -0.290000 2.000000
v 0.932920 -0.290148 2.000000
v 0.941527 -0.271104 0.000000
v 0.939688 -0.270000 0.000000
v 0.940607 -0.270148 0.000000
v 0.974313 -0.270000 0.000000
v 0.972474 -0.271104 0.000000
v 0.973393 -0.270148 0.000000
v 0.972474 -0.271104 2.000000
v 0.974313 -0.270000 2.000000
v 0.973393 -0.270148 2.000000
v 0.939688 -0.270000 2.000000
v 0.941527 -0.271104 2.000000
v 0.940607 -0.270148 2.000000
v 0.935415 0.270000 0.000000
v 0.978586 0.270000 0.000000
v 0.978586 0.270000 2.000000
v 0.935415 0.270000 2.000000
v 0.978586 0.300000 0.000000
v 0.935415 0.300000 0.000000
v 0.935415 0.300000 2.000000
v 0.978586 0.300000 2.000000
v 0.978586 0.280000 2.000000
v 0.935415 0.280000 2.000000
v 0.978586 0.290000 2.000000
v 0.935415 0.290000 2.000000
v 0.935415 0.280000 0.000000
v 0.978586 0.280000 0.000000
v 0.935415 0.290000 0.000000
v 0.978586 0.290000 0.000000
v 0.972474 0.300000 0.000000
v 0.941527 0.300000 0.000000
v 0.941527 0.300000 2.000000
v 0.972474 0.300000 2.000000
v 0.972474 0.280000 2.000000
v 0.941527 0.280000 2.000000
v 0.972474 0.290000 2.000000
v 0.941527 0.290000 2.000000
v 0.941527 0.280000 0.000000
v 0.972474 0.280000 0.000000
v 0.941527 0.290000 0.000000
v 0.972474 0.290000 0.000000
v 0.980161 0.300000 0.000000
v 0.982000 0.298896 0.000000
v 0.981080 0.299852 0.000000
v 0.982000 0.298896 2.000000
v 0.980161 0.300000 2.000000
v 0.981080 0.299852 2.000000
v 0.982000 0.271104 0.000000
v 0.980161 0.270000 0.000000
v 0.981080 0.270148 0.000000
v 0.980161 0.270000 2.000000
v 0.982000 0.271104 2.000000
v 0.981080 0.270148 2.000000
v 0.932000 0.298896 0.000000
v 0.933839 0.300000 0.000000
v 0.932920 0.299852 0.000000
v 0.933839 0.300000 2.000000
v 0.932000 0.298896 2.000000
v 0.932920 0.299852 2.000000
v 0.933839 0.270000 0.000000
v 0.932000 0.271104 0.000000
v 0.932920 0.270148 0.000000
v 0.932000 0.271104 2.000000
v 0.933839 0.270000 2.000000
v 0.932920 0.270148 2.000000
v 0.980161 0.280000 0.000000
v 0.982000 0.278896 0.000000
v 0.981080 0.279852 0.000000
v 0.982000 0.291104 0.000000
v 0.980161 0.290000 0.000000
v 0.981080 0.290148 0.000000
v 0.980161 0.290000 2.000000
v 0.982000 0.291104 2.000000
v 0.981080 0.290148 2.000000
v 0.982000 0.278896 2.000000
v 0.980161 0.280000 2.000000
v 0.981080 0.279852 2.000000
v 0.933839 0.290000 0.000000
v 0.932000 0.291104 0.000000
v 0.932920 0.290148 0.000000
v 0.932000 0.278896 0.000000
v 0.933839 0.280000 0.000000
v 0.932246 0.279448 0.000000
v 0.932920 0.279852 0.000000
v 0.933839 0.280000 2.000000
v 0.932000 0.278896 2.000000
v 0.932920 0.279852 2.000000
v 0.932246 0.279448 2.000000
v 0.932000 0.291104 2.000000
v 0.933839 0.290000 2.000000
v 0.932920 0.290148 2.000000
v 0.941527 0.271104 0.000000
v 0.939688 0.270000 0.000000
v 0.940607 0.270148 0.000000
v 0.974313 0.270000 0.000000
v 0.972474 0.271104 0.000000
v 0.973393 0.270148 0.000000
v 0.972474 0.271104 2.000000
v 0.974313 0.270000 2.000000
v 0.973393 0.270148 2.000000
v 0.939688 0.270000 2.000000
v 0.941527 0.271104 2.000000
v 0.940607 0.270148 2.000000
vn 1.0000 -0.0000 -0.0000
vn -0.0000 -0.0000 -1.0000
vn -1.0000 -0.0000 -0.0000
vn -0.0000 -0.0000 1.0000
vn -0.0000 -1.0000 -0.0000
vn -0.0000 1.0000 -0.0000
vn -0.1587 -0.9873 -0.0000
vn -0.7206 0.6934 -0.0000
vn -0.1587 0.9873 -0.0000
vn 0.7206 0.6934 -0.0000
vn 0.7206 -0.6934 -0.0000
vn 0.1587 0.9873 -0.0000
vn 0.1587 -0.9873 -0.0000
vn 0.7206 0.6933 -0.0000
vn 0.5145 -0.8575 -0.0000
vn 0.9131 -0.4077 -0.0000
vn -0.7206 0.6933 -0.0000
vn -0.7206 -0.6933 -0.0000
vn -0.7206 -0.6934 -0.0000
vn 0.7206 -0.6933 -0.0000
vn 0.5145 0.8575 -0.0000
vn 0.9131 0.4077 -0.0000
vn -0.5145 -0.8575 -0.0000
vn -0.9131 -0.4077 -0.0000
vn -0.5145 0.8575 -0.0000
vn -0.9131 0.4077 -0.0000
vt 0.610528 0.935422
vt 0.610528 0.003656
vt 0.620100 0.003656
vt 0.620100 0.935422
vt 0.944812 0.073132
vt 0.944812 0.070070
vt 0.955103 0.070070
vt 0.955103 0.073132
vt 0.731963 0.935420
vt 0.722392 0.935420
vt 0.722392 0.003655
vt 0.731963 0.003655
vt 0.955103 0.153338
vt 0.955103 0.156399
vt 0.944812 0.156399
vt 0.944812 0.153338
vt 0.934522 0.156399
vt 0.934522 0.153338
vt 0.965393 0.070070
vt 0.965393 0.073132
vt 0.197628 0.003655
vt 0.197628 0.996345
vt 0.191395 0.996345
vt 0.191395 0.003655
vt 0.235418 0.003655
vt 0.235418 0.996345
vt 0.229186 0.996345
vt 0.229186 0.003655
vt 0.955103 0.091694
vt 0.955103 0.088632
vt 0.965393 0.088632
vt 0.965393 0.091694
vt 0.944812 0.134776
vt 0.944812 0.137837
vt 0.934522 0.137837
vt 0.934522 0.134776
vt 0.955103 0.134776
vt 0.955103 0.137837
vt 0.657393 0.003655
vt 0.687014 0.003655
vt 0.687014 0.935421
vt 0.657393 0.935421
vt 0.944812 0.091694
vt 0.944812 0.088632
vt 0.748994 0.003655
vt 0.748994 0.935420
vt 0.747079 0.935421
vt 0.747079 0.003655
vt 0.707276 0.003655
vt 0.709190 0.003655
vt 0.709190 0.935420
vt 0.707276 0.935420
vt 0.705361 0.935421
vt 0.705361 0.003655
vt 0.635216 0.003655
vt 0.637130 0.003656
vt 0.637130 0.935421
vt 0.635216 0.935421
vt 0.595412 0.003656
vt 0.597327 0.003657
vt 0.597327 0.935422
vt 0.595412 0.935422
vt 0.639045 0.003655
vt 0.639045 0.935421
vt 0.593498 0.935422
vt 0.593498 0.003657
vt 0.604786 0.003657
vt 0.606700 0.003657
vt 0.606700 0.935423
vt 0.604786 0.935422
vt 0.622014 0.935422
vt 0.622014 0.003657
vt 0.623929 0.003656
vt 0.623929 0.935422
vt 0.625843 0.003656
vt 0.625843 0.935421
vt 0.627757 0.003655
vt 0.627757 0.935421
vt 0.735792 0.003655
vt 0.737706 0.003655
vt 0.737706 0.935420
vt 0.735792 0.935420
vt 0.608614 0.003657
vt 0.608614 0.935422
vt 0.733878 0.935420
vt 0.733878 0.003655
vt 0.716649 0.003655
vt 0.718563 0.003655
vt 0.718563 0.935421
vt 0.716649 0.935420
vt 0.695529 0.003655
vt 0.697443 0.003655
vt 0.697443 0.935421
vt 0.695529 0.935421
vt 0.720477 0.003655
vt 0.720477 0.935420
vt 0.646963 0.003655
vt 0.648877 0.003655
vt 0.648877 0.935421
vt 0.646963 0.935420
vt 0.699357 0.003655
vt 0.699357 0.935421
vt 0.645049 0.935421
vt 0.645049 0.003655
vt 0.956239 0.093404
vt 0.955255 0.092943
vt 0.955103 0.092483
vt 0.965393 0.092483
vt 0.965241 0.092943
vt 0.964258 0.093404
vt 0.745165 0.003655
vt 0.745165 0.935420
vt 0.189356 0.996345
vt 0.189356 0.003655
vt 0.944812 0.157188
vt 0.944660 0.157649
vt 0.943677 0.158109
vt 0.935658 0.158109
vt 0.934674 0.157649
vt 0.934522 0.157188
vt 0.703447 0.935421
vt 0.703447 0.003655
vt 0.935658 0.093404
vt 0.934674 0.092943
vt 0.934522 0.092483
vt 0.934522 0.091694
vt 0.944812 0.092483
vt 0.944660 0.092943
vt 0.943677 0.093404
vt 0.965393 0.156399
vt 0.965393 0.157188
vt 0.965241 0.157649
vt 0.964258 0.158109
vt 0.956239 0.158109
vt 0.955255 0.157649
vt 0.955103 0.157188
vt 0.237458 0.003654
vt 0.237458 0.996345
vt 0.955103 0.069281
vt 0.955255 0.068821
vt 0.956239 0.068360
vt 0.964258 0.068360
vt 0.965241 0.068821
vt 0.965393 0.069281
vt 0.943677 0.133066
vt 0.944660 0.133526
vt 0.944812 0.133987
vt 0.934522 0.133987
vt 0.934674 0.133526
vt 0.935658 0.133066
vt 0.934522 0.070070
vt 0.934522 0.069281
vt 0.934674 0.068821
vt 0.935658 0.068360
vt 0.943677 0.068360
vt 0.944244 0.068484
vt 0.944660 0.068821
vt 0.944812 0.069281
vt 0.640959 0.003655
vt 0.640959 0.935421
vt 0.964258 0.133066
vt 0.965241 0.133526
vt 0.965393 0.133987
vt 0.965393 0.134776
vt 0.955103 0.133987
vt 0.955255 0.133526
vt 0.955671 0.133189
vt 0.956239 0.133066
vt 0.935658 0.073132
vt 0.934674 0.072671
vt 0.934522 0.072211
vt 0.934522 0.089554
vt 0.934674 0.089093
vt 0.935658 0.088632
vt 0.964258 0.153338
vt 0.965241 0.153799
vt 0.965393 0.154259
vt 0.965393 0.136916
vt 0.965241 0.137377
vt 0.964258 0.137837
vt 0.561451 0.935424
vt 0.551880 0.935424
vt 0.551880 0.003658
vt 0.561451 0.003658
vt 0.955103 0.170190
vt 0.944812 0.170190
vt 0.944812 0.167129
vt 0.955103 0.167129
vt 0.440017 0.935420
vt 0.440017 0.003655
vt 0.449588 0.003655
vt 0.449588 0.935420
vt 0.944812 0.023927
vt 0.955103 0.023927
vt 0.955103 0.026988
vt 0.944812 0.026988
vt 0.965393 0.023927
vt 0.965393 0.026988
vt 0.934522 0.170190
vt 0.934522 0.167129
vt 0.039830 0.003655
vt 0.046063 0.003655
vt 0.046063 0.996345
vt 0.039830 0.996345
vt 0.002039 0.003655
vt 0.008272 0.003655
vt 0.008272 0.996345
vt 0.002040 0.996345
vt 0.944812 0.188752
vt 0.934522 0.188752
vt 0.934522 0.185691
vt 0.944812 0.185691
vt 0.955103 0.005365
vt 0.965393 0.005365
vt 0.965393 0.008426
vt 0.955103 0.008426
vt 0.944812 0.005365
vt 0.944812 0.008426
vt 0.514587 0.003656
vt 0.514587 0.935422
vt 0.484966 0.935422
vt 0.484966 0.003656
vt 0.955103 0.188752
vt 0.955103 0.185691
vt 0.422986 0.003655
vt 0.424900 0.003655
vt 0.424900 0.935421
vt 0.422986 0.935420
vt 0.464704 0.003655
vt 0.464704 0.935421
vt 0.462790 0.935421
vt 0.462790 0.003655
vt 0.466619 0.935421
vt 0.466619 0.003655
vt 0.536764 0.003657
vt 0.536764 0.935422
vt 0.534849 0.935422
vt 0.534849 0.003657
vt 0.576567 0.003658
vt 0.576567 0.935424
vt 0.574653 0.935424
vt 0.574653 0.003659
vt 0.532935 0.935422
vt 0.532935 0.003656
vt 0.578482 0.935424
vt 0.578482 0.003659
vt 0.567194 0.003659
vt 0.567194 0.935424
vt 0.565280 0.935424
vt 0.565280 0.003659
vt 0.549965 0.935424
vt 0.548051 0.935423
vt 0.548051 0.003658
vt 0.549965 0.003658
vt 0.546137 0.935423
vt 0.546137 0.003657
vt 0.544222 0.935422
vt 0.544222 0.003657
vt 0.436188 0.003654
vt 0.436188 0.935420
vt 0.434274 0.935420
vt 0.434274 0.003655
vt 0.563366 0.935424
vt 0.563366 0.003658
vt 0.438102 0.935421
vt 0.438102 0.003655
vt 0.455331 0.003655
vt 0.455331 0.935421
vt 0.453417 0.935421
vt 0.453417 0.003655
vt 0.476451 0.003656
vt 0.476451 0.935422
vt 0.474537 0.935422
vt 0.474537 0.003656
vt 0.451502 0.935421
vt 0.451502 0.003655
vt 0.525017 0.003656
vt 0.525017 0.935421
vt 0.523102 0.935422
vt 0.523102 0.003656
vt 0.472622 0.935421
vt 0.472622 0.003656
vt 0.526931 0.935422
vt 0.526931 0.003656
vt 0.943677 0.190462
vt 0.935658 0.190462
vt 0.934674 0.190002
vt 0.934522 0.189541
vt 0.944812 0.189541
vt 0.944660 0.190002
vt 0.426815 0.003655
vt 0.426815 0.935420
vt 0.048102 0.003655
vt 0.048102 0.996346
vt 0.965393 0.027777
vt 0.965241 0.028238
vt 0.964257 0.028698
vt 0.956239 0.028698
vt 0.955255 0.028238
vt 0.955103 0.027777
vt 0.468533 0.003656
vt 0.468533 0.935421
vt 0.964258 0.190462
vt 0.956239 0.190462
vt 0.955255 0.190002
vt 0.955103 0.189541
vt 0.965393 0.188752
vt 0.965393 0.189541
vt 0.965241 0.190002
vt 0.934522 0.026988
vt 0.944812 0.027777
vt 0.944660 0.028238
vt 0.943677 0.028698
vt 0.935658 0.028698
vt 0.934674 0.028238
vt 0.934522 0.027777
vt -0.000000 0.003654
vt 0.000000 0.996345
vt 0.934522 0.166340
vt 0.934674 0.165879
vt 0.935658 0.165418
vt 0.943677 0.165418
vt 0.944660 0.165879
vt 0.944812 0.166340
vt 0.956239 0.003654
vt 0.964257 0.003654
vt 0.965241 0.004115
vt 0.965393 0.004576
vt 0.955103 0.004576
vt 0.955255 0.004115
vt 0.965393 0.167129
vt 0.955103 0.166340
vt 0.955255 0.165879
vt 0.955671 0.165542
vt 0.956239 0.165418
vt 0.964258 0.165418
vt 0.965241 0.165879
vt 0.965393 0.166340
vt 0.531021 0.003656
vt 0.531021 0.935422
vt 0.935658 0.003654
vt 0.943677 0.003654
vt 0.944244 0.003778
vt 0.944660 0.004115
vt 0.944812 0.004576
vt 0.934522 0.005365
vt 0.934522 0.004576
vt 0.934674 0.004115
vt 0.964258 0.170190
vt 0.965393 0.169269
vt 0.965241 0.169730
vt 0.964258 0.185691
vt 0.965241 0.186151
vt 0.965393 0.186612
vt 0.935658 0.023927
vt 0.934522 0.024848
vt 0.934674 0.024387
vt 0.935658 0.008426
vt 0.934674 0.007966
vt 0.934522 0.007505
vt 0.390940 0.935424
vt 0.381368 0.935424
vt 0.381368 0.003658
vt 0.390940 0.003658
vt 0.944812 0.218043
vt 0.955103 0.218043
vt 0.955103 0.221105
vt 0.944812 0.221105
vt 0.269505 0.935420
vt 0.269505 0.003655
vt 0.279076 0.003655
vt 0.279076 0.935420
vt 0.955103 0.040779
vt 0.944812 0.040779
vt 0.944812 0.037717
vt 0.955103 0.037717
vt 0.934522 0.040779
vt 0.934522 0.037717
vt 0.965393 0.218043
vt 0.965393 0.221105
vt 0.102949 0.003655
vt 0.109181 0.003655
vt 0.109182 0.996345
vt 0.102949 0.996345
vt 0.065158 0.003655
vt 0.071391 0.003655
vt 0.071391 0.996345
vt 0.065158 0.996345
vt 0.955103 0.199481
vt 0.965393 0.199481
vt 0.965393 0.202543
vt 0.955103 0.202543
vt 0.944812 0.059341
vt 0.934522 0.059341
vt 0.934522 0.056279
vt 0.944812 0.056279
vt 0.955103 0.059341
vt 0.955103 0.056279
vt 0.344075 0.003656
vt 0.344075 0.935422
vt 0.314454 0.935422
vt 0.314454 0.003656
vt 0.944812 0.199481
vt 0.944812 0.202543
vt 0.252474 0.003654
vt 0.254389 0.003655
vt 0.254389 0.935421
vt 0.252474 0.935420
vt 0.294192 0.003655
vt 0.294192 0.935421
vt 0.292278 0.935421
vt 0.292278 0.003655
vt 0.296107 0.935421
vt 0.296107 0.003655
vt 0.366252 0.003657
vt 0.366252 0.935422
vt 0.364338 0.935422
vt 0.364338 0.003657
vt 0.406056 0.003658
vt 0.406056 0.935424
vt 0.404141 0.935424
vt 0.404141 0.003659
vt 0.362423 0.935422
vt 0.362423 0.003656
vt 0.407970 0.935424
vt 0.407970 0.003659
vt 0.396682 0.003659
vt 0.396682 0.935424
vt 0.394768 0.935424
vt 0.394768 0.003659
vt 0.379454 0.935424
vt 0.377539 0.935423
vt 0.377539 0.003658
vt 0.379454 0.003658
vt 0.375625 0.935423
vt 0.375625 0.003657
vt 0.373711 0.935422
vt 0.373711 0.003657
vt 0.265676 0.003654
vt 0.265676 0.935420
vt 0.263762 0.935420
vt 0.263762 0.003655
vt 0.392854 0.935424
vt 0.392854 0.003658
vt 0.267590 0.935421
vt 0.267590 0.003655
vt 0.284819 0.003655
vt 0.284819 0.935421
vt 0.282905 0.935421
vt 0.282905 0.003655
vt 0.305939 0.003656
vt 0.305939 0.935422
vt 0.304025 0.935422
vt 0.304025 0.003656
vt 0.280991 0.935421
vt 0.280991 0.003655
vt 0.354505 0.003656
vt 0.354505 0.935421
vt 0.352591 0.935422
vt 0.352591 0.003656
vt 0.302111 0.935421
vt 0.302111 0.003656
vt 0.356419 0.935422
vt 0.356419 0.003656
vt 0.956239 0.197771
vt 0.964258 0.197771
vt 0.965241 0.198232
vt 0.965393 0.198692
vt 0.955103 0.198692
vt 0.955255 0.198232
vt 0.256303 0.003655
vt 0.256303 0.935420
vt 0.111221 0.003655
vt 0.111221 0.996345
vt 0.934522 0.036929
vt 0.934674 0.036468
vt 0.935658 0.036007
vt 0.943677 0.036007
vt 0.944660 0.036468
vt 0.944812 0.036929
vt 0.298021 0.003656
vt 0.298021 0.935421
vt 0.935658 0.197771
vt 0.943677 0.197771
vt 0.944660 0.198232
vt 0.944812 0.198692
vt 0.934522 0.199481
vt 0.934522 0.198692
vt 0.934674 0.198232
vt 0.965393 0.037717
vt 0.955103 0.036929
vt 0.955255 0.036468
vt 0.956238 0.036007
vt 0.964257 0.036007
vt 0.965241 0.036468
vt 0.965393 0.036929
vt 0.063119 0.003654
vt 0.063119 0.996345
vt 0.965393 0.221894
vt 0.965241 0.222354
vt 0.964258 0.222815
vt 0.956239 0.222815
vt 0.955255 0.222354
vt 0.955103 0.221894
vt 0.943677 0.061051
vt 0.935658 0.061051
vt 0.934674 0.060591
vt 0.934522 0.060130
vt 0.944812 0.060130
vt 0.944660 0.060591
vt 0.934522 0.221105
vt 0.944812 0.221894
vt 0.944660 0.222354
vt 0.944244 0.222692
vt 0.943677 0.222815
vt 0.935658 0.222815
vt 0.934674 0.222354
vt 0.934522 0.221894
vt 0.360509 0.003656
vt 0.360509 0.935422
vt 0.964258 0.061051
vt 0.956238 0.061051
vt 0.955671 0.060928
vt 0.955255 0.060591
vt 0.955103 0.060130
vt 0.965393 0.059341
vt 0.965393 0.060130
vt 0.965241 0.060591
vt 0.935658 0.218043
vt 0.934522 0.218964
vt 0.934674 0.218504
vt 0.935658 0.202543
vt 0.934674 0.202082
vt 0.934522 0.201621
vt 0.964258 0.040779
vt 0.965393 0.039858
vt 0.965241 0.040318
vt 0.964258 0.056279
vt 0.965241 0.056740
vt 0.965393 0.057201
vt 0.781040 0.935422
vt 0.781040 0.003656
vt 0.790612 0.003656
vt 0.790612 0.935422
vt 0.955103 0.120985
vt 0.955103 0.124046
vt 0.944812 0.124046
vt 0.944812 0.120985
vt 0.902475 0.935420
vt 0.892904 0.935420
vt 0.892904 0.003655
vt 0.902475 0.003655
vt 0.944812 0.234895
vt 0.944812 0.231834
vt 0.955103 0.231834
vt 0.955103 0.234895
vt 0.965393 0.231834
vt 0.965393 0.234895
vt 0.934522 0.124046
vt 0.934522 0.120985
vt 0.134510 0.003655
vt 0.134510 0.996345
vt 0.128277 0.996345
vt 0.128277 0.003655
vt 0.172300 0.003655
vt 0.172300 0.996345
vt 0.166067 0.996345
vt 0.166067 0.003655
vt 0.944812 0.102423
vt 0.944812 0.105484
vt 0.934522 0.105484
vt 0.934522 0.102423
vt 0.955103 0.253457
vt 0.955103 0.250396
vt 0.965393 0.250396
vt 0.965393 0.253457
vt 0.944812 0.253457
vt 0.944812 0.250396
vt 0.827905 0.003655
vt 0.857525 0.003655
vt 0.857525 0.935421
vt 0.827905 0.935421
vt 0.955103 0.102423
vt 0.955103 0.105484
vt 0.919506 0.003655
vt 0.919506 0.935420
vt 0.917591 0.935421
vt 0.917591 0.003655
vt 0.877787 0.003655
vt 0.879702 0.003655
vt 0.879702 0.935420
vt 0.877787 0.935420
vt 0.875873 0.935420
vt 0.875873 0.003655
vt 0.805728 0.003655
vt 0.807642 0.003656
vt 0.807642 0.935421
vt 0.805728 0.935421
vt 0.765924 0.003656
vt 0.767839 0.003657
vt 0.767839 0.935422
vt 0.765924 0.935422
vt 0.809557 0.003655
vt 0.809557 0.935421
vt 0.764010 0.935422
vt 0.764010 0.003657
vt 0.775297 0.003657
vt 0.777212 0.003657
vt 0.777212 0.935423
vt 0.775297 0.935422
vt 0.792526 0.935422
vt 0.792526 0.003657
vt 0.794441 0.003656
vt 0.794441 0.935422
vt 0.796355 0.003656
vt 0.796355 0.935421
vt 0.798269 0.003655
vt 0.798269 0.935421
vt 0.906304 0.003655
vt 0.908218 0.003655
vt 0.908218 0.935420
vt 0.906304 0.935420
vt 0.779126 0.003657
vt 0.779126 0.935422
vt 0.904390 0.935420
vt 0.904390 0.003655
vt 0.887161 0.003655
vt 0.889075 0.003655
vt 0.889075 0.935421
vt 0.887161 0.935420
vt 0.866041 0.003655
vt 0.867955 0.003655
vt 0.867955 0.935421
vt 0.866041 0.935421
vt 0.890989 0.003655
vt 0.890989 0.935420
vt 0.817475 0.003655
vt 0.819389 0.003655
vt 0.819389 0.935421
vt 0.817475 0.935420
vt 0.869869 0.003655
vt 0.869869 0.935421
vt 0.815561 0.935421
vt 0.815561 0.003655
vt 0.943677 0.100713
vt 0.944660 0.101173
vt 0.944812 0.101634
vt 0.934522 0.101634
vt 0.934674 0.101173
vt 0.935658 0.100713
vt 0.915677 0.003655
vt 0.915677 0.935420
vt 0.126237 0.996345
vt 0.126237 0.003655
vt 0.955103 0.231045
vt 0.955255 0.230585
vt 0.956239 0.230124
vt 0.964258 0.230124
vt 0.965241 0.230585
vt 0.965393 0.231045
vt 0.873959 0.935421
vt 0.873959 0.003655
vt 0.964258 0.100713
vt 0.965241 0.101173
vt 0.965393 0.101634
vt 0.965393 0.102423
vt 0.955103 0.101634
vt 0.955255 0.101173
vt 0.956239 0.100713
vt 0.934522 0.231834
vt 0.934522 0.231045
vt 0.934674 0.230585
vt 0.935658 0.230124
vt 0.943677 0.230124
vt 0.944660 0.230585
vt 0.944812 0.231045
vt 0.174340 0.003654
vt 0.174340 0.996345
vt 0.944812 0.124835
vt 0.944660 0.125296
vt 0.943677 0.125757
vt 0.935658 0.125757
vt 0.934674 0.125296
vt 0.934522 0.124835
vt 0.956239 0.255168
vt 0.955255 0.254707
vt 0.955103 0.254246
vt 0.965393 0.254246
vt 0.965241 0.254707
vt 0.964258 0.255168
vt 0.965393 0.124046
vt 0.965393 0.124835
vt 0.965241 0.125296
vt 0.964258 0.125757
vt 0.956239 0.125757
vt 0.955671 0.125633
vt 0.955255 0.125296
vt 0.955103 0.124835
vt 0.811471 0.003655
vt 0.811471 0.935421
vt 0.935658 0.255168
vt 0.934674 0.254707
vt 0.934522 0.254246
vt 0.934522 0.253457
vt 0.944812 0.254246
vt 0.944660 0.254707
vt 0.944245 0.255044
vt 0.943677 0.255168
vt 0.964258 0.120985
vt 0.965241 0.121446
vt 0.965393 0.121906
vt 0.965393 0.104563
vt 0.965241 0.105024
vt 0.964258 0.105484
vt 0.935658 0.234895
vt 0.934674 0.234435
vt 0.934522 0.233974
vt 0.934522 0.251317
vt 0.934674 0.250857
vt 0.935658 0.250396
s 0
f 12/1/1 15/2/1 13/3/1 10/4/1
f 25/5/2 13/6/2 15/7/2 27/8/2
f 11/9/3 9/10/3 14/11/3 16/12/3
f 21/13/4 9/14/4 11/15/4 23/16/4
f 23/16/4 11/15/4 8/17/4 20/18/4
f 27/8/2 15/7/2 6/19/2 18/20/2
f 17/21/5 20/22/5 8/23/5 5/24/5
f 6/25/5 7/26/5 19/27/5 18/28/5
f 18/28/5 19/27/5 20/22/5 17/21/5
f 16/29/2 28/30/2 17/31/2 5/32/2
f 28/30/2 27/8/2 18/20/2 17/31/2
f 12/33/4 24/34/4 19/35/4 7/36/4
f 24/34/4 23/16/4 20/18/4 19/35/4
f 10/37/4 22/38/4 24/34/4 12/33/4
f 22/38/4 21/13/4 23/16/4 24/34/4
f 25/39/6 26/40/6 21/41/6 22/42/6
f 14/43/2 26/44/2 28/30/2 16/29/2
f 26/44/2 25/5/2 27/8/2 28/30/2
f 29/45/7 33/46/7 34/47/7 31/48/7
f 37/49/8 35/50/8 39/51/8 40/52/8
f 38/53/9 36/54/9 37/49/9 40/52/9
f 48/55/10 49/56/10 52/57/10 50/58/10
f 43/59/11 41/60/11 45/61/11 46/62/11
f 52/57/12 49/56/12 47/63/12 51/64/12
f 44/65/13 42/66/13 43/59/13 46/62/13
f 66/67/14 67/68/14 78/69/14 76/70/14
f 72/71/13 69/72/13 71/73/13 74/74/13
f 74/74/15 71/73/15 70/75/15 75/76/15
f 75/76/16 70/75/16 68/77/16 73/78/16
f 58/79/17 56/80/17 60/81/17 61/82/17
f 78/69/12 67/68/12 65/83/12 77/84/12
f 59/85/9 57/86/9 58/79/9 61/82/9
f 54/87/18 55/88/18 64/89/18 62/90/18
f 83/91/10 84/92/10 87/93/10 85/94/10
f 64/89/7 55/88/7 53/95/7 63/96/7
f 81/97/8 79/98/8 89/99/8 90/100/8
f 87/93/12 84/92/12 82/101/12 86/102/12
f 88/103/9 80/104/9 81/97/9 90/100/9
f 56/105/2 58/106/2 57/107/2 16/29/2 5/32/2 29/108/2 31/109/2 30/110/2
f 30/111/3 32/112/3 60/81/3 56/80/3
f 5/24/5 8/23/5 33/113/5 29/114/5
f 11/15/4 59/115/4 61/116/4 60/117/4 32/118/4 34/119/4 33/120/4 8/17/4
f 36/54/6 38/53/6 3/121/6 2/122/6
f 35/123/2 37/124/2 36/125/2 2/126/2 14/43/2 53/127/2 55/128/2 54/129/2
f 54/87/3 62/90/3 39/51/3 35/50/3
f 3/130/4 38/131/4 40/132/4 39/133/4 62/134/4 64/135/4 63/136/4 9/14/4
f 42/137/5 44/138/5 7/26/5 6/25/5
f 15/7/2 65/139/2 67/140/2 66/141/2 41/142/2 43/143/2 42/144/2 6/19/2
f 66/67/1 76/70/1 45/61/1 41/60/1
f 76/145/4 78/146/4 77/147/4 12/33/4 7/36/4 44/148/4 46/149/4 45/150/4
f 48/55/1 50/58/1 73/78/1 68/77/1
f 1/151/2 47/152/2 49/153/2 48/154/2 68/155/2 70/156/2 71/157/2 69/158/2 13/6/2
f 1/159/6 4/160/6 51/64/6 47/63/6
f 50/161/4 52/162/4 51/163/4 4/164/4 10/37/4 72/165/4 74/166/4 75/167/4 73/168/4
f 14/11/5 9/10/5 63/96/5 53/95/5
f 16/12/6 57/86/6 59/85/6 11/9/6
f 15/2/6 12/1/6 77/84/6 65/83/6
f 13/3/5 69/72/5 72/71/5 10/4/5
f 80/104/6 88/103/6 4/160/6 1/159/6
f 25/39/3 22/42/3 89/99/3 79/98/3
f 79/169/2 81/170/2 80/171/2 1/151/2 13/6/2 25/5/2
f 2/126/2 82/172/2 84/173/2 83/174/2 26/44/2 14/43/2
f 2/122/6 3/121/6 86/102/6 82/101/6
f 26/40/1 83/91/1 85/94/1 21/41/1
f 85/175/4 87/176/4 86/177/4 3/130/4 9/14/4 21/13/4
f 4/164/4 88/178/4 90/179/4 89/180/4 22/38/4 10/37/4
f 34/47/19 32/112/19 30/111/19 31/48/19
f 102/181/1 100/182/1 103/183/1 105/184/1
f 115/185/2 117/186/2 105/187/2 103/188/2
f 101/189/3 106/190/3 104/191/3 99/192/3
f 111/193/4 113/194/4 101/195/4 99/196/4
f 113/194/4 110/197/4 98/198/4 101/195/4
f 117/186/2 108/199/2 96/200/2 105/187/2
f 107/201/6 95/202/6 98/203/6 110/204/6
f 96/205/6 108/206/6 109/207/6 97/208/6
f 108/206/6 107/201/6 110/204/6 109/207/6
f 106/209/2 95/210/2 107/211/2 118/212/2
f 118/212/2 107/211/2 108/199/2 117/186/2
f 102/213/4 97/214/4 109/215/4 114/216/4
f 114/216/4 109/215/4 110/197/4 113/194/4
f 100/217/4 102/213/4 114/216/4 112/218/4
f 112/218/4 114/216/4 113/194/4 111/193/4
f 115/219/5 112/220/5 111/221/5 116/222/5
f 104/223/2 106/209/2 118/212/2 116/224/2
f 116/224/2 118/212/2 117/186/2 115/185/2
f 119/225/9 121/226/9 124/227/9 123/228/9
f 127/229/19 130/230/19 129/231/19 125/232/19
f 128/233/7 130/230/7 127/229/7 126/234/7
f 138/235/11 140/236/11 142/237/11 139/238/11
f 133/239/10 136/240/10 135/241/10 131/242/10
f 142/237/13 141/243/13 137/244/13 139/238/13
f 134/245/12 136/240/12 133/239/12 132/246/12
f 156/247/20 166/248/20 168/249/20 157/250/20
f 162/251/12 164/252/12 161/253/12 159/254/12
f 164/252/21 165/255/21 160/256/21 161/253/21
f 165/255/22 163/257/22 158/258/22 160/256/22
f 148/259/18 151/260/18 150/261/18 146/262/18
f 168/249/13 167/263/13 155/264/13 157/250/13
f 149/265/7 151/260/7 148/259/7 147/266/7
f 144/267/17 152/268/17 154/269/17 145/270/17
f 173/271/11 175/272/11 177/273/11 174/274/11
f 154/269/9 153/275/9 143/276/9 145/270/9
f 171/277/19 180/278/19 179/279/19 169/280/19
f 177/273/13 176/281/13 172/282/13 174/274/13
f 178/283/7 180/278/7 171/277/7 170/284/7
f 146/285/2 120/286/2 121/287/2 119/288/2 95/210/2 106/209/2 147/289/2 148/290/2
f 120/291/3 146/262/3 150/261/3 122/292/3
f 95/202/6 119/293/6 123/294/6 98/203/6
f 101/195/4 98/198/4 123/295/4 124/296/4 122/297/4 150/298/4 151/299/4 149/300/4
f 126/234/5 92/301/5 93/302/5 128/233/5
f 125/303/2 144/304/2 145/305/2 143/306/2 104/223/2 92/307/2 126/308/2 127/309/2
f 144/267/3 125/232/3 129/231/3 152/268/3
f 93/310/4 99/196/4 153/311/4 154/312/4 152/313/4 129/314/4 130/315/4 128/316/4
f 132/317/6 96/205/6 97/208/6 134/318/6
f 105/187/2 96/200/2 132/319/2 133/320/2 131/321/2 156/322/2 157/323/2 155/324/2
f 156/247/1 131/242/1 135/241/1 166/248/1
f 166/325/4 135/326/4 136/327/4 134/328/4 97/214/4 102/213/4 167/329/4 168/330/4
f 138/235/1 158/258/1 163/257/1 140/236/1
f 91/331/2 103/188/2 159/332/2 161/333/2 160/334/2 158/335/2 138/336/2 139/337/2 137/338/2
f 91/339/5 137/244/5 141/243/5 94/340/5
f 140/341/4 163/342/4 165/343/4 164/344/4 162/345/4 100/217/4 94/346/4 141/347/4 142/348/4
f 104/191/6 143/276/6 153/275/6 99/192/6
f 106/190/5 101/189/5 149/265/5 147/266/5
f 105/184/5 155/264/5 167/263/5 102/181/5
f 103/183/6 100/182/6 162/251/6 159/254/6
f 170/284/5 91/339/5 94/340/5 178/283/5
f 115/219/3 169/280/3 179/279/3 112/220/3
f 169/349/2 115/185/2 103/188/2 91/331/2 170/350/2 171/351/2
f 92/307/2 104/223/2 116/224/2 173/352/2 174/353/2 172/354/2
f 92/301/5 172/282/5 176/281/5 93/302/5
f 116/222/1 111/221/1 175/272/1 173/271/1
f 175/355/4 111/193/4 99/196/4 93/310/4 176/356/4 177/357/4
f 94/346/4 100/217/4 112/218/4 179/358/4 180/359/4 178/360/4
f 124/227/8 121/226/8 120/291/8 122/292/8
f 192/361/3 190/362/3 193/363/3 195/364/3
f 205/365/2 207/366/2 195/367/2 193/368/2
f 191/369/1 196/370/1 194/371/1 189/372/1
f 201/373/4 203/374/4 191/375/4 189/376/4
f 203/374/4 200/377/4 188/378/4 191/375/4
f 207/366/2 198/379/2 186/380/2 195/367/2
f 197/381/5 185/382/5 188/383/5 200/384/5
f 186/385/5 198/386/5 199/387/5 187/388/5
f 198/386/5 197/381/5 200/384/5 199/387/5
f 196/389/2 185/390/2 197/391/2 208/392/2
f 208/392/2 197/391/2 198/379/2 207/366/2
f 192/393/4 187/394/4 199/395/4 204/396/4
f 204/396/4 199/395/4 200/377/4 203/374/4
f 190/397/4 192/393/4 204/396/4 202/398/4
f 202/398/4 204/396/4 203/374/4 201/373/4
f 205/399/6 202/400/6 201/401/6 206/402/6
f 194/403/2 196/389/2 208/392/2 206/404/2
f 206/404/2 208/392/2 207/366/2 205/365/2
f 209/405/13 211/406/13 214/407/13 213/408/13
f 217/409/10 220/410/10 219/411/10 215/412/10
f 218/413/12 220/410/12 217/409/12 216/414/12
f 228/415/8 230/416/8 232/417/8 229/418/8
f 223/419/19 226/420/19 225/421/19 221/422/19
f 232/417/9 231/423/9 227/424/9 229/418/9
f 224/425/7 226/420/7 223/419/7 222/426/7
f 246/427/17 256/428/17 258/429/17 247/430/17
f 252/431/7 254/432/7 251/433/7 249/434/7
f 254/432/23 255/435/23 250/436/23 251/433/23
f 255/435/24 253/437/24 248/438/24 250/436/24
f 238/439/14 241/440/14 240/441/14 236/442/14
f 258/429/9 257/443/9 245/444/9 247/430/9
f 239/445/12 241/440/12 238/439/12 237/446/12
f 234/447/20 242/448/20 244/449/20 235/450/20
f 263/451/8 265/452/8 267/453/8 264/454/8
f 244/449/13 243/455/13 233/456/13 235/450/13
f 261/457/10 270/458/10 269/459/10 259/460/10
f 267/453/9 266/461/9 262/462/9 264/454/9
f 268/463/12 270/458/12 261/457/12 260/464/12
f 236/465/2 210/466/2 211/467/2 209/468/2 185/390/2 196/389/2 237/469/2 238/470/2
f 210/471/1 236/442/1 240/441/1 212/472/1
f 185/382/5 209/473/5 213/474/5 188/383/5
f 191/375/4 188/378/4 213/475/4 214/476/4 212/477/4 240/478/4 241/479/4 239/480/4
f 216/414/6 182/481/6 183/482/6 218/413/6
f 215/483/2 234/484/2 235/485/2 233/486/2 194/403/2 182/487/2 216/488/2 217/489/2
f 234/447/1 215/412/1 219/411/1 242/448/1
f 183/490/4 189/376/4 243/491/4 244/492/4 242/493/4 219/494/4 220/495/4 218/496/4
f 222/497/5 186/385/5 187/388/5 224/498/5
f 195/367/2 186/380/2 222/499/2 223/500/2 221/501/2 246/502/2 247/503/2 245/504/2
f 246/427/3 221/422/3 225/421/3 256/428/3
f 256/505/4 225/506/4 226/507/4 224/508/4 187/394/4 192/393/4 257/509/4 258/510/4
f 228/415/3 248/438/3 253/437/3 230/416/3
f 181/511/2 193/368/2 249/512/2 251/513/2 250/514/2 248/515/2 228/516/2 229/517/2 227/518/2
f 181/519/6 227/424/6 231/423/6 184/520/6
f 230/521/4 253/522/4 255/523/4 254/524/4 252/525/4 190/397/4 184/526/4 231/527/4 232/528/4
f 194/371/5 233/456/5 243/455/5 189/372/5
f 196/370/6 191/369/6 239/445/6 237/446/6
f 195/364/6 245/444/6 257/443/6 192/361/6
f 193/363/5 190/362/5 252/431/5 249/434/5
f 260/464/6 181/519/6 184/520/6 268/463/6
f 205/399/1 259/460/1 269/459/1 202/400/1
f 259/529/2 205/365/2 193/368/2 181/511/2 260/530/2 261/531/2
f 182/487/2 194/403/2 206/404/2 263/532/2 264/533/2 262/534/2
f 182/481/6 262/462/6 266/461/6 183/482/6
f 206/402/3 201/401/3 265/452/3 263/451/3
f 265/535/4 201/373/4 189/376/4 183/490/4 266/536/4 267/537/4
f 184/526/4 190/397/4 202/398/4 269/538/4 270/539/4 268/540/4
f 214/407/11 211/406/11 210/471/11 212/472/11
f 282/541/3 285/542/3 283/543/3 280/544/3
f 295/545/2 283/546/2 285/547/2 297/548/2
f 281/549/1 279/550/1 284/551/1 286/552/1
f 291/553/4 279/554/4 281/555/4 293/556/4
f 293/556/4 281/555/4 278/557/4 290/558/4
f 297/548/2 285/547/2 276/559/2 288/560/2
f 287/561/6 290/562/6 278/563/6 275/564/6
f 276/565/6 277/566/6 289/567/6 288/568/6
f 288/568/6 289/567/6 290/562/6 287/561/6
f 286/569/2 298/570/2 287/571/2 275/572/2
f 298/570/2 297/548/2 288/560/2 287/571/2
f 282/573/4 294/574/4 289/575/4 277/576/4
f 294/574/4 293/556/4 290/558/4 289/575/4
f 280/577/4 292/578/4 294/574/4 282/573/4
f 292/578/4 291/553/4 293/556/4 294/574/4
f 295/579/5 296/580/5 291/581/5 292/582/5
f 284/583/2 296/584/2 298/570/2 286/569/2
f 296/584/2 295/545/2 297/548/2 298/570/2
f 299/585/12 303/586/12 304/587/12 301/588/12
f 307/589/11 305/590/11 309/591/11 310/592/11
f 308/593/13 306/594/13 307/589/13 310/592/13
f 318/595/19 319/596/19 322/597/19 320/598/19
f 313/599/8 311/600/8 315/601/8 316/602/8
f 322/597/7 319/596/7 317/603/7 321/604/7
f 314/605/9 312/606/9 313/599/9 316/602/9
f 336/607/18 337/608/18 348/609/18 346/610/18
f 342/611/9 339/612/9 341/613/9 344/614/9
f 344/614/25 341/613/25 340/615/25 345/616/25
f 345/616/26 340/615/26 338/617/26 343/618/26
f 328/619/20 326/620/20 330/621/20 331/622/20
f 348/609/7 337/608/7 335/623/7 347/624/7
f 329/625/13 327/626/13 328/619/13 331/622/13
f 324/627/14 325/628/14 334/629/14 332/630/14
f 353/631/19 354/632/19 357/633/19 355/634/19
f 334/629/12 325/628/12 323/635/12 333/636/12
f 351/637/11 349/638/11 359/639/11 360/640/11
f 357/633/7 354/632/7 352/641/7 356/642/7
f 358/643/13 350/644/13 351/637/13 360/640/13
f 326/645/2 328/646/2 327/647/2 286/569/2 275/572/2 299/648/2 301/649/2 300/650/2
f 300/651/1 302/652/1 330/621/1 326/620/1
f 275/564/6 278/563/6 303/653/6 299/654/6
f 281/555/4 329/655/4 331/656/4 330/657/4 302/658/4 304/659/4 303/660/4 278/557/4
f 306/594/5 308/593/5 273/661/5 272/662/5
f 305/663/2 307/664/2 306/665/2 272/666/2 284/583/2 323/667/2 325/668/2 324/669/2
f 324/627/1 332/630/1 309/591/1 305/590/1
f 273/670/4 308/671/4 310/672/4 309/673/4 332/674/4 334/675/4 333/676/4 279/554/4
f 312/677/6 314/678/6 277/566/6 276/565/6
f 285/547/2 335/679/2 337/680/2 336/681/2 311/682/2 313/683/2 312/684/2 276/559/2
f 336/607/3 346/610/3 315/601/3 311/600/3
f 346/685/4 348/686/4 347/687/4 282/573/4 277/576/4 314/688/4 316/689/4 315/690/4
f 318/595/3 320/598/3 343/618/3 338/617/3
f 271/691/2 317/692/2 319/693/2 318/694/2 338/695/2 340/696/2 341/697/2 339/698/2 283/546/2
f 271/699/5 274/700/5 321/604/5 317/603/5
f 320/701/4 322/702/4 321/703/4 274/704/4 280/577/4 342/705/4 344/706/4 345/707/4 343/708/4
f 284/551/6 279/550/6 333/636/6 323/635/6
f 286/552/5 327/626/5 329/625/5 281/549/5
f 285/542/5 282/541/5 347/624/5 335/623/5
f 283/543/6 339/612/6 342/611/6 280/544/6
f 350/644/5 358/643/5 274/700/5 271/699/5
f 295/579/1 292/582/1 359/639/1 349/638/1
f 349/709/2 351/710/2 350/711/2 271/691/2 283/546/2 295/545/2
f 272/666/2 352/712/2 354/713/2 353/714/2 296/584/2 284/583/2
f 272/662/5 273/661/5 356/642/5 352/641/5
f 296/580/3 353/631/3 355/634/3 291/581/3
f 355/715/4 357/716/4 356/717/4 273/670/4 279/554/4 291/553/4
f 274/704/4 358/718/4 360/719/4 359/720/4 292/578/4 280/577/4
f 304/587/10 302/652/10 300/651/10 301/588/10
