# Blender 4.5.6 LTS
# www.blender.org
o V_carton_02
v -0.412500 -0.285000 -0.150000
v -0.412500 -0.285000 0.150000
v -0.412500 0.285000 -0.150000
v -0.412500 0.285000 0.150000
v 0.412500 -0.285000 -0.150000
v 0.412500 -0.285000 0.150000
v 0.412500 0.285000 -0.150000
v 0.412500 0.285000 0.150000
vn -1.0000 -0.0000 -0.0000
vn -0.0000 1.0000 -0.0000
vn 1.0000 -0.0000 -0.0000
vn -0.0000 -1.0000 -0.0000
vn -0.0000 -0.0000 -1.0000
vn -0.0000 -0.0000 1.0000
vt 0.650507 0.328385
vt 0.478892 0.328385
vt 0.478892 0.002317
vt 0.650507 0.002317
vt 0.002317 0.500000
vt 0.002317 0.328385
vt 0.474258 0.328385
vt 0.474258 0.500000
vt 0.478892 0.333019
vt 0.650507 0.333019
vt 0.650507 0.659087
vt 0.478892 0.659087
vt 0.474258 0.826068
vt 0.474258 0.997683
vt 0.002317 0.997683
vt 0.002317 0.826068
vt 0.002317 0.002317
vt 0.474258 0.002317
s 0
f 1/1/1 2/2/1 4/3/1 3/4/1
f 3/5/2 4/6/2 8/7/2 7/8/2
f 7/9/3 8/10/3 6/11/3 5/12/3
f 5/13/4 6/14/4 2/15/4 1/16/4
f 3/5/5 7/8/5 5/13/5 1/16/5
f 8/7/6 4/6/6 2/17/6 6/18/6
