# Blender 4.5.6 LTS
# www.blender.org
o V_table_Lun
v 0.022500 0.023363 -0.000000
v 0.021055 0.025000 -0.000000
v -0.022500 0.023363 0.000000
v -0.021055 0.025000 0.000000
v 0.022500 0.021585 -0.008941
v 0.021055 0.023097 -0.009567
v -0.022500 0.021585 -0.008941
v -0.021055 0.023097 -0.009567
v 0.022500 0.016520 -0.016520
v 0.021055 0.017678 -0.017678
v -0.022500 0.016520 -0.016520
v -0.021055 0.017678 -0.017678
v 0.022500 0.008941 -0.021585
v 0.021055 0.009567 -0.023097
v -0.022500 0.008941 -0.021585
v -0.021055 0.009567 -0.023097
v 0.022500 0.000000 -0.023363
v 0.021055 0.000000 -0.025000
v -0.022500 0.000000 -0.023363
v -0.021055 0.000000 -0.025000
v 0.022500 -0.008941 -0.021585
v 0.021055 -0.009567 -0.023097
v -0.022500 -0.008941 -0.021585
v -0.021055 -0.009567 -0.023097
v 0.022500 -0.016520 -0.016520
v 0.021055 -0.017678 -0.017678
v -0.022500 -0.016520 -0.016520
v -0.021055 -0.017678 -0.017678
v 0.022500 -0.021585 -0.008941
v 0.021055 -0.023097 -0.009567
v -0.022500 -0.021585 -0.008941
v -0.021055 -0.023097 -0.009567
v 0.022500 -0.023363 -0.000000
v 0.021055 -0.025000 -0.000000
v -0.022500 -0.023363 0.000000
v -0.021055 -0.025000 0.000000
v 0.022500 -0.021585 0.008941
v 0.021055 -0.023097 0.009567
v -0.022500 -0.021585 0.008941
v -0.021055 -0.023097 0.009567
v 0.022500 -0.016520 0.016520
v 0.021055 -0.017678 0.017678
v -0.022500 -0.016520 0.016520
v -0.021055 -0.017678 0.017678
v 0.022500 -0.008941 0.021585
v 0.021055 -0.009567 0.023097
v -0.022500 -0.008941 0.021585
v -0.021055 -0.009567 0.023097
v 0.022500 0.000000 0.023363
v 0.021055 0.000000 0.025000
v -0.022500 0.000000 0.023363
v -0.021055 0.000000 0.025000
v 0.022500 0.008941 0.021585
v 0.021055 0.009567 0.023097
v -0.022500 0.008941 0.021585
v -0.021055 0.009567 0.023097
v 0.022500 0.016520 0.016520
v 0.021055 0.017678 0.017678
v -0.022500 0.016520 0.016520
v -0.021055 0.017678 0.017678
v 0.022500 0.021585 0.008941
v 0.021055 0.023097 0.009567
v -0.022500 0.021585 0.008941
v -0.021055 0.023097 0.009567
vn 0.7497 0.6618 -0.0000
vn 0.7497 0.6114 -0.2532
vn -0.7497 0.6114 -0.2532
vn -0.7497 0.6618 -0.0000
vn 0.7497 0.4679 -0.4679
vn -0.7497 0.4679 -0.4679
vn 0.7497 0.2532 -0.6114
vn -0.7497 0.2532 -0.6114
vn 0.7497 -0.0000 -0.6618
vn -0.7497 -0.0000 -0.6618
vn 0.7497 -0.2532 -0.6114
vn -0.7497 -0.2532 -0.6114
vn 0.7497 -0.4679 -0.4679
vn -0.7497 -0.4679 -0.4679
vn 0.7497 -0.6114 -0.2532
vn -0.7497 -0.6114 -0.2532
vn 0.7497 -0.6618 -0.0000
vn -0.7497 -0.6618 -0.0000
vn 0.7497 -0.6114 0.2532
vn -0.7497 -0.6114 0.2532
vn 0.7497 -0.4679 0.4679
vn -0.7497 -0.4679 0.4679
vn 0.7497 -0.2532 0.6114
vn -0.7497 -0.2532 0.6114
vn 0.7497 -0.0000 0.6618
vn -0.7497 -0.0000 0.6618
vn 0.7497 0.2532 0.6114
vn -0.7497 0.2532 0.6114
vn 0.7497 0.4679 0.4679
vn -0.7497 0.4679 0.4679
vn 0.7497 0.6114 0.2532
vn -0.7497 0.6114 0.2532
vn 1.0000 -0.0000 -0.0000
vn -0.0000 1.0000 -0.0000
vn -0.0000 0.9239 -0.3827
vn -0.0000 0.9239 0.3827
vn -1.0000 -0.0000 -0.0000
vn -0.0000 0.7071 -0.7071
vn -0.0000 0.3827 -0.9239
vn -0.0000 -0.0000 -1.0000
vn -0.0000 -0.3827 -0.9239
vn -0.0000 -0.7071 -0.7071
vn -0.0000 -0.9239 -0.3827
vn -0.0000 -1.0000 -0.0000
vn -0.0000 -0.9239 0.3827
vn -0.0000 -0.7071 0.7071
vn -0.0000 -0.3827 0.9239
vn -0.0000 -0.0000 1.0000
vn -0.0000 0.3827 0.9239
vn -0.0000 0.7071 0.7071
vt 0.995915 0.811731
vt 0.977378 0.808172
vt 0.947640 0.879343
vt 0.963540 0.889827
vt 0.996302 0.811869
vt 0.978021 0.808263
vt 0.948737 0.879045
vt 0.964513 0.889466
vt 0.892836 0.934361
vt 0.903569 0.950449
vt 0.996388 0.727925
vt 0.977763 0.731413
vt 0.821036 0.963826
vt 0.824551 0.982540
vt 0.965139 0.648916
vt 0.949011 0.659465
vt 0.743986 0.963452
vt 0.740052 0.981951
vt 0.905236 0.588614
vt 0.894732 0.604366
vt 0.673337 0.933501
vt 0.662592 0.949002
vt 0.827809 0.556460
vt 0.824131 0.574750
vt 0.619863 0.878645
vt 0.603975 0.888770
vt 0.743626 0.556079
vt 0.747312 0.574878
vt 0.591780 0.807219
vt 0.573236 0.810635
vt 0.665097 0.588200
vt 0.675664 0.603964
vt 0.591662 0.730315
vt 0.573236 0.726497
vt 0.605294 0.647768
vt 0.621069 0.658186
vt 0.621185 0.659694
vt 0.605707 0.649355
vt 0.573236 0.725636
vt 0.591771 0.729127
vt 0.675232 0.605323
vt 0.664605 0.589687
vt 0.573810 0.809625
vt 0.592257 0.805924
vt 0.746631 0.575946
vt 0.742879 0.557137
vt 0.604907 0.887352
vt 0.620543 0.877186
vt 0.823663 0.575686
vt 0.827331 0.557286
vt 0.663589 0.947831
vt 0.674359 0.931967
vt 0.894722 0.605432
vt 0.905461 0.589537
vt 0.741898 0.980534
vt 0.745540 0.961936
vt 0.948799 0.660290
vt 0.964680 0.650069
vt 0.826041 0.980534
vt 0.822509 0.962137
vt 0.977233 0.731458
vt 0.995520 0.727925
vt 0.904511 0.949354
vt 0.893965 0.933327
vt 0.518404 0.199010
vt 0.518404 0.150137
vt 0.307419 0.150137
vt 0.307419 0.199010
vt 0.518404 0.247883
vt 0.307419 0.247883
vt 0.518404 0.101264
vt 0.307419 0.101264
vt 0.518404 0.052391
vt 0.307419 0.052391
vt 0.518404 0.003518
vt 0.307419 0.003518
vt 0.518404 0.785485
vt 0.518404 0.736612
vt 0.307419 0.736612
vt 0.307419 0.785485
vt 0.518404 0.687739
vt 0.307419 0.687739
vt 0.518404 0.638866
vt 0.307419 0.638866
vt 0.518404 0.589993
vt 0.307419 0.589993
vt 0.518404 0.541121
vt 0.307419 0.541120
vt 0.518404 0.492248
vt 0.307419 0.492248
vt 0.518404 0.443375
vt 0.307419 0.443375
vt 0.518404 0.394502
vt 0.307419 0.394502
vt 0.518404 0.345629
vt 0.307419 0.345629
vt 0.518404 0.296756
vt 0.307419 0.296756
s 1
f 2/1/1 1/2/1 5/3/2 6/4/2
f 8/5/3 7/6/3 3/7/4 4/8/4
f 6/4/2 5/3/2 9/9/5 10/10/5
f 12/11/6 11/12/6 7/6/3 8/5/3
f 10/10/5 9/9/5 13/13/7 14/14/7
f 16/15/8 15/16/8 11/12/6 12/11/6
f 14/14/7 13/13/7 17/17/9 18/18/9
f 20/19/10 19/20/10 15/16/8 16/15/8
f 18/18/9 17/17/9 21/21/11 22/22/11
f 24/23/12 23/24/12 19/20/10 20/19/10
f 22/22/11 21/21/11 25/25/13 26/26/13
f 28/27/14 27/28/14 23/24/12 24/23/12
f 26/26/13 25/25/13 29/29/15 30/30/15
f 32/31/16 31/32/16 27/28/14 28/27/14
f 30/30/15 29/29/15 33/33/17 34/34/17
f 36/35/18 35/36/18 31/32/16 32/31/16
f 34/34/17 33/33/17 37/37/19 38/38/19
f 40/39/20 39/40/20 35/36/18 36/35/18
f 38/38/19 37/37/19 41/41/21 42/42/21
f 44/43/22 43/44/22 39/40/20 40/39/20
f 42/42/21 41/41/21 45/45/23 46/46/23
f 48/47/24 47/48/24 43/44/22 44/43/22
f 46/46/23 45/45/23 49/49/25 50/50/25
f 52/51/26 51/52/26 47/48/24 48/47/24
f 50/50/25 49/49/25 53/53/27 54/54/27
f 56/55/28 55/56/28 51/52/26 52/51/26
f 54/54/27 53/53/27 57/57/29 58/58/29
f 60/59/30 59/60/30 55/56/28 56/55/28
f 58/58/29 57/57/29 61/61/31 62/62/31
f 64/63/32 63/64/32 59/60/30 60/59/30
f 62/62/31 61/61/31 1/2/1 2/1/1
f 4/8/4 3/7/4 63/64/32 64/63/32
f 1/2/33 61/61/33 57/57/33 53/53/33 49/49/33 45/45/33 41/41/33 37/37/33 33/33/33 29/29/33 25/25/33 21/21/33 17/17/33 13/13/33 9/9/33 5/3/33
f 2/65/34 6/66/35 8/67/35 4/68/34
f 62/69/36 2/65/34 4/68/34 64/70/36
f 7/6/37 11/12/37 15/16/37 19/20/37 23/24/37 27/28/37 31/32/37 35/36/37 39/40/37 43/44/37 47/48/37 51/52/37 55/56/37 59/60/37 63/64/37 3/7/37
f 6/66/35 10/71/38 12/72/38 8/67/35
f 10/71/38 14/73/39 16/74/39 12/72/38
f 14/73/39 18/75/40 20/76/40 16/74/39
f 18/77/40 22/78/41 24/79/41 20/80/40
f 22/78/41 26/81/42 28/82/42 24/79/41
f 26/81/42 30/83/43 32/84/43 28/82/42
f 30/83/43 34/85/44 36/86/44 32/84/43
f 34/85/44 38/87/45 40/88/45 36/86/44
f 38/87/45 42/89/46 44/90/46 40/88/45
f 42/89/46 46/91/47 48/92/47 44/90/46
f 46/91/47 50/93/48 52/94/48 48/92/47
f 50/93/48 54/95/49 56/96/49 52/94/48
f 54/95/49 58/97/50 60/98/50 56/96/49
f 58/97/50 62/69/36 64/70/36 60/98/50
