# Blender 4.5.6 LTS
# www.blender.org
o V_table_LunK
v 0.022500 0.015519 -0.045018
v -0.022500 0.015519 -0.045018
v 0.022500 -0.036772 -0.045018
v -0.022500 -0.036772 -0.045018
v 0.022500 -0.034803 -0.035232
v -0.022500 -0.034803 -0.035232
v 0.022500 -0.029130 -0.026742
v -0.022500 -0.029130 -0.026742
v 0.022500 -0.020640 -0.021070
v -0.022500 -0.020640 -0.021070
v 0.022500 -0.010626 -0.019078
v -0.022500 -0.010626 -0.019078
v 0.022500 -0.000612 -0.021070
v -0.022500 -0.000612 -0.021070
v 0.022500 0.007877 -0.026742
v -0.022500 0.007877 -0.026742
v 0.022500 0.013550 -0.035232
v -0.022500 0.013550 -0.035232
v 0.022500 0.018462 -0.044426
v -0.022500 0.018462 -0.044426
v -0.022500 -0.039715 -0.044426
v 0.022500 -0.039715 -0.044426
v 0.022500 -0.037575 -0.034080
v -0.022500 -0.037575 -0.034080
v 0.022500 -0.031253 -0.024620
v -0.022500 -0.031253 -0.024620
v 0.022500 -0.021789 -0.018297
v -0.022500 -0.021789 -0.018297
v 0.022500 -0.010626 -0.016076
v -0.022500 -0.010626 -0.016076
v 0.022500 0.000537 -0.018297
v -0.022500 0.000537 -0.018297
v 0.022500 0.010000 -0.024620
v -0.022500 0.010000 -0.024620
v 0.022500 0.016322 -0.034080
v -0.022500 0.016322 -0.034080
v 0.000000 0.014923 -0.032212
v 0.000000 0.012024 -0.008248
v -0.010552 0.010552 -0.032212
v -0.008753 0.008399 -0.008248
v -0.014923 0.000000 -0.032212
v -0.012232 0.000000 -0.008248
v -0.010552 -0.010552 -0.032212
v -0.008753 -0.008399 -0.008248
v 0.000000 -0.014923 -0.032212
v 0.000000 -0.012024 -0.008248
v 0.010552 -0.010552 -0.032212
v 0.008753 -0.008399 -0.008248
v 0.014923 0.000000 -0.032212
v 0.012232 0.000000 -0.008248
v 0.010552 0.010552 -0.032212
v 0.008753 0.008399 -0.008248
v -0.010552 0.010552 -0.008248
v 0.000000 0.014923 -0.008248
v -0.014923 0.000000 -0.008248
v -0.010552 -0.010552 -0.008248
v 0.000000 -0.014923 -0.008248
v 0.010552 -0.010552 -0.008248
v 0.014923 0.000000 -0.008248
v 0.010552 0.010552 -0.008248
v -0.005819 0.004887 -0.007058
v 0.000000 0.007297 -0.007058
v -0.007844 0.000000 -0.007058
v -0.005819 -0.004887 -0.007058
v 0.000000 -0.007297 -0.007058
v 0.005820 -0.004887 -0.007058
v 0.007844 0.000000 -0.007058
v 0.005820 0.004887 -0.007058
v -0.008753 0.008399 -0.007058
v 0.000000 0.012024 -0.007058
v -0.012232 0.000000 -0.007058
v -0.008753 -0.008399 -0.007058
v 0.000000 -0.012024 -0.007058
v 0.008753 -0.008399 -0.007058
v 0.012232 0.000000 -0.007058
v 0.008753 0.008399 -0.007058
v -0.005819 0.004887 0.000000
v 0.000000 0.007297 0.000000
v -0.007844 0.000000 0.000000
v -0.005819 -0.004887 0.000000
v 0.000000 -0.007297 0.000000
v 0.005820 -0.004887 0.000000
v 0.007844 0.000000 0.000000
v 0.005820 0.004887 0.000000
vn -0.0000 0.9803 -0.1973
vn -0.0000 0.9234 -0.3837
vn -0.0000 0.7071 -0.7071
vn -0.0000 0.3827 -0.9239
vn -0.0000 -0.0000 -1.0000
vn -0.0000 -0.3827 -0.9239
vn -0.0000 -0.7071 -0.7071
vn -0.0000 -0.9234 -0.3837
vn -0.0000 -0.9803 -0.1973
vn -0.0000 -0.9793 0.2026
vn -0.0000 -0.9224 0.3862
vn -0.0000 -0.7071 0.7071
vn -0.0000 -0.3827 0.9239
vn -0.0000 -0.0000 1.0000
vn -0.0000 0.3827 0.9239
vn -0.0000 0.7071 0.7071
vn -0.0000 0.9224 0.3862
vn -0.0000 0.9793 0.2026
vn 1.0000 -0.0000 -0.0000
vn -1.0000 -0.0000 -0.0000
vn -0.0000 0.1973 -0.9803
vn -0.0000 -0.1973 -0.9803
vn -0.3827 0.9239 -0.0000
vn -0.9239 0.3827 -0.0000
vn -0.9239 -0.3827 -0.0000
vn -0.3827 -0.9239 -0.0000
vn 0.3827 -0.9239 -0.0000
vn 0.9239 -0.3827 -0.0000
vn 0.9239 0.3827 -0.0000
vn 0.3827 0.9239 -0.0000
vt 0.266276 0.019385
vt 0.028418 0.025733
vt 0.021522 0.075431
vt 0.276021 0.072028
vt 0.019414 0.130493
vt 0.280787 0.128329
vt 0.019217 0.187491
vt 0.283269 0.185829
vt 0.020627 0.246364
vt 0.283734 0.244701
vt 0.020740 0.305098
vt 0.283304 0.303684
vt 0.023699 0.361569
vt 0.279513 0.361736
vt 0.033070 0.415509
vt 0.268753 0.418328
vt 0.055479 0.456662
vt 0.235349 0.472259
vt 0.202594 0.885825
vt 0.207683 0.839087
vt 0.008608 0.817410
vt 0.003518 0.864148
vt 0.213165 0.788751
vt 0.014089 0.767073
vt 0.218647 0.738400
vt 0.019571 0.716722
vt 0.224130 0.688049
vt 0.025054 0.666371
vt 0.229613 0.637698
vt 0.030537 0.616020
vt 0.235095 0.587347
vt 0.036020 0.565669
vt 0.240576 0.537011
vt 0.041501 0.515333
vt 0.245666 0.490272
vt 0.046590 0.468595
vt 0.291187 0.069529
vt 0.280613 0.016678
vt 0.295528 0.363966
vt 0.299271 0.304632
vt 0.014856 0.023736
vt 0.006932 0.073696
vt 0.005057 0.305950
vt 0.008472 0.363672
vt 0.300383 0.244677
vt 0.299065 0.185002
vt 0.003518 0.187211
vt 0.004000 0.246580
vt 0.296236 0.126984
vt 0.285290 0.425669
vt 0.004210 0.129777
vt 0.018879 0.420983
vt 0.265853 0.003518
vt 0.027994 0.009866
vt 0.720769 0.097670
vt 0.683623 0.047664
vt 0.598604 0.114560
vt 0.626224 0.150037
vt 0.642684 0.003518
vt 0.559739 0.087364
vt 0.705880 0.479272
vt 0.732887 0.423217
vt 0.624882 0.376333
vt 0.588262 0.422605
vt 0.756342 0.358835
vt 0.645830 0.328206
vt 0.767380 0.291192
vt 0.652095 0.279255
vt 0.765132 0.223565
vt 0.649370 0.234327
vt 0.640236 0.277647
vt 0.634480 0.277199
vt 0.625911 0.322603
vt 0.631758 0.324240
vt 0.750659 0.157553
vt 0.641462 0.191911
vt 0.614918 0.156173
vt 0.590368 0.121741
vt 0.557508 0.097995
vt 0.581723 0.410684
vt 0.613235 0.370716
vt 0.639930 0.235412
vt 0.631144 0.195773
vt 0.603976 0.205648
vt 0.565707 0.215033
vt 0.569610 0.239325
vt 0.612956 0.238053
vt 0.607262 0.367294
vt 0.575855 0.406003
vt 0.586791 0.125355
vt 0.610313 0.158797
vt 0.626065 0.197422
vt 0.634437 0.236088
vt 0.554722 0.101824
vt 0.587794 0.170905
vt 0.570037 0.139098
vt 0.549521 0.120569
vt 0.563929 0.384312
vt 0.583988 0.355733
vt 0.597691 0.314040
vt 0.609303 0.272821
vt 0.566961 0.265464
vt 0.556889 0.299282
vt 0.542131 0.333198
vt 0.525441 0.362043
vt 0.539783 0.159604
vt 0.554403 0.186095
vt 0.525441 0.141397
s 1
f 3/1/1 4/2/1 6/3/2 5/4/2
f 5/4/2 6/3/2 8/5/3 7/6/3
f 7/6/3 8/5/3 10/7/4 9/8/4
f 9/8/4 10/7/4 12/9/5 11/10/5
f 11/10/5 12/9/5 14/11/6 13/12/6
f 13/12/6 14/11/6 16/13/7 15/14/7
f 15/14/7 16/13/7 18/15/8 17/16/8
f 17/16/8 18/15/8 2/17/9 1/18/9
f 22/19/10 23/20/11 24/21/11 21/22/10
f 23/20/11 25/23/12 26/24/12 24/21/11
f 25/23/12 27/25/13 28/26/13 26/24/12
f 27/25/13 29/27/14 30/28/14 28/26/13
f 29/27/14 31/29/15 32/30/15 30/28/14
f 31/29/15 33/31/16 34/32/16 32/30/15
f 33/31/16 35/33/17 36/34/17 34/32/16
f 35/33/17 19/35/18 20/36/18 36/34/17
f 5/4/19 23/37/19 22/38/19 3/1/19
f 15/14/19 33/39/19 31/40/19 13/12/19
f 4/2/20 21/41/20 24/42/20 6/3/20
f 14/11/20 32/43/20 34/44/20 16/13/20
f 11/10/19 29/45/19 27/46/19 9/8/19
f 10/7/20 28/47/20 30/48/20 12/9/20
f 7/6/19 25/49/19 23/37/19 5/4/19
f 17/16/19 35/50/19 33/39/19 15/14/19
f 6/3/20 24/42/20 26/51/20 8/5/20
f 16/13/20 34/44/20 36/52/20 18/15/20
f 13/12/19 31/40/19 29/45/19 11/10/19
f 2/17/21 20/36/21 19/35/21 1/18/21
f 12/9/20 30/48/20 32/43/20 14/11/20
f 9/8/19 27/46/19 25/49/19 7/6/19
f 1/18/19 19/35/19 35/50/19 17/16/19
f 3/1/22 22/53/22 21/54/22 4/2/22
f 8/5/20 26/51/20 28/47/20 10/7/20
f 18/15/20 36/52/20 20/36/20 2/17/20
f 37/55/23 39/56/23 53/57/23 54/58/23
f 39/56/24 41/59/24 55/60/24 53/57/24
f 41/61/25 43/62/25 56/63/25 55/64/25
f 43/62/26 45/65/26 57/66/26 56/63/26
f 45/65/27 47/67/27 58/68/27 57/66/27
f 47/67/28 49/69/28 59/70/28 58/68/28
f 48/71/27 74/72/27 73/73/27 46/74/27
f 49/69/29 51/75/29 60/76/29 59/70/29
f 51/75/30 37/55/30 54/58/30 60/76/30
f 38/77/14 54/58/14 53/57/14 40/78/14
f 40/78/14 53/57/14 55/60/14 42/79/14
f 42/80/14 55/64/14 56/63/14 44/81/14
f 44/81/14 56/63/14 57/66/14 46/74/14
f 46/74/14 57/66/14 58/68/14 48/71/14
f 48/71/14 58/68/14 59/70/14 50/82/14
f 50/82/14 59/70/14 60/76/14 52/83/14
f 52/83/14 60/76/14 54/58/14 38/77/14
f 68/84/29 84/85/29 83/86/29 67/87/29
f 44/81/25 72/88/25 71/89/25 42/80/25
f 40/78/23 69/90/23 70/91/23 38/77/23
f 38/77/30 70/91/30 76/92/30 52/83/30
f 50/82/28 75/93/28 74/72/28 48/71/28
f 46/74/26 73/73/26 72/88/26 44/81/26
f 42/79/24 71/94/24 69/90/24 40/78/24
f 52/83/29 76/92/29 75/93/29 50/82/29
f 62/95/14 70/91/14 69/90/14 61/96/14
f 61/96/14 69/90/14 71/94/14 63/97/14
f 63/98/14 71/89/14 72/88/14 64/99/14
f 64/99/14 72/88/14 73/73/14 65/100/14
f 65/100/14 73/73/14 74/72/14 66/101/14
f 66/101/14 74/72/14 75/93/14 67/87/14
f 67/87/14 75/93/14 76/92/14 68/84/14
f 68/84/14 76/92/14 70/91/14 62/95/14
f 66/101/27 82/102/27 81/103/27 65/100/27
f 64/99/25 80/104/25 79/105/25 63/98/25
f 61/96/23 77/106/23 78/107/23 62/95/23
f 62/95/30 78/107/30 84/85/30 68/84/30
f 67/87/28 83/86/28 82/102/28 66/101/28
f 65/100/26 81/103/26 80/104/26 64/99/26
f 63/97/24 79/108/24 77/106/24 61/96/24
