# Blender 4.5.6 LTS
# www.blender.org
o V_carton_01
v -0.405000 -0.272500 -0.067500
v -0.405000 -0.272500 0.067500
v -0.405000 0.272500 -0.067500
v -0.405000 0.272500 0.067500
v 0.405000 -0.272500 -0.067500
v 0.405000 -0.272500 0.067500
v 0.405000 0.272500 -0.067500
v 0.405000 0.272500 0.067500
vn -1.0000 -0.0000 -0.0000
vn -0.0000 1.0000 -0.0000
vn 1.0000 -0.0000 -0.0000
vn -0.0000 -1.0000 -0.0000
vn -0.0000 -0.0000 -1.0000
vn -0.0000 -0.0000 1.0000
vt 0.589206 0.003617
vt 0.589206 0.100009
vt 0.978346 0.100009
vt 0.978346 0.003617
vt 0.003617 0.796365
vt 0.003617 0.892757
vt 0.581972 0.892757
vt 0.581972 0.796365
vt 0.978346 0.107243
vt 0.978346 0.203635
vt 0.589206 0.203635
vt 0.589206 0.107243
vt 0.581972 0.899991
vt 0.581972 0.996383
vt 0.003617 0.996383
vt 0.003617 0.899991
vt 0.003617 0.392757
vt 0.581972 0.392757
vt 0.581972 0.003617
vt 0.003617 0.003617
vt 0.581972 0.789131
vt 0.003617 0.789131
vt 0.003617 0.399991
vt 0.581972 0.399991
s 0
f 1/1/1 2/2/1 4/3/1 3/4/1
f 3/5/2 4/6/2 8/7/2 7/8/2
f 7/9/3 8/10/3 6/11/3 5/12/3
f 5/13/4 6/14/4 2/15/4 1/16/4
f 3/17/5 7/18/5 5/19/5 1/20/5
f 8/21/6 4/22/6 2/23/6 6/24/6
