# Blender 4.5.6 LTS
# www.blender.org
o V_carton_04
v -0.185000 -0.180000 -0.115000
v -0.185000 -0.180000 0.115000
v -0.185000 0.180000 -0.115000
v -0.185000 0.180000 0.115000
v 0.185000 -0.180000 -0.115000
v 0.185000 -0.180000 0.115000
v 0.185000 0.180000 -0.115000
v 0.185000 0.180000 0.115000
vn -1.0000 -0.0000 -0.0000
vn -0.0000 1.0000 -0.0000
vn 1.0000 -0.0000 -0.0000
vn -0.0000 -1.0000 -0.0000
vn -0.0000 -0.0000 -1.0000
vn -0.0000 -0.0000 1.0000
vt 0.300824 0.500000
vt 0.300824 0.690877
vt 0.002059 0.690877
vt 0.002059 0.500000
vt 0.495820 0.620305
vt 0.304943 0.620305
vt 0.304942 0.313241
vt 0.495820 0.313241
vt 0.002059 0.192937
vt 0.002059 0.002059
vt 0.300824 0.002059
vt 0.300824 0.192937
vt 0.304942 0.002059
vt 0.495820 0.002059
vt 0.495820 0.309123
vt 0.304942 0.309123
vt 0.002059 0.997941
vt 0.300824 0.997941
s 0
f 1/1/1 2/2/1 4/3/1 3/4/1
f 3/5/2 4/6/2 8/7/2 7/8/2
f 7/9/3 8/10/3 6/11/3 5/12/3
f 5/13/4 6/14/4 2/15/4 1/16/4
f 3/4/5 7/9/5 5/12/5 1/1/5
f 8/17/6 4/3/6 2/2/6 6/18/6
