# Blender 4.5.6 LTS
# www.blender.org
o V_carton_06
v -0.282500 -0.185000 -0.060000
v -0.282500 -0.185000 0.060000
v -0.282500 0.185000 -0.060000
v -0.282500 0.185000 0.060000
v 0.282500 -0.185000 -0.060000
v 0.282500 -0.185000 0.060000
v 0.282500 0.185000 -0.060000
v 0.282500 0.185000 0.060000
vn -1.0000 -0.0000 -0.0000
vn -0.0000 1.0000 -0.0000
vn 1.0000 -0.0000 -0.0000
vn -0.0000 -1.0000 -0.0000
vn -0.0000 -0.0000 -1.0000
vn -0.0000 -0.0000 1.0000
vt 0.702772 0.378131
vt 0.580903 0.378131
vt 0.580903 0.002367
vt 0.702772 0.002367
vt 0.576168 0.378131
vt 0.576168 0.500000
vt 0.002367 0.500000
vt 0.002367 0.378131
vt 0.580903 0.382866
vt 0.702772 0.382866
vt 0.702772 0.758629
vt 0.580903 0.758629
vt 0.002368 0.997633
vt 0.002368 0.875763
vt 0.576168 0.875763
vt 0.576168 0.997633
vt 0.002367 0.002367
vt 0.576168 0.002367
s 0
f 1/1/1 2/2/1 4/3/1 3/4/1
f 3/5/2 4/6/2 8/7/2 7/8/2
f 7/9/3 8/10/3 6/11/3 5/12/3
f 5/13/4 6/14/4 2/15/4 1/16/4
f 3/5/5 7/8/5 5/17/5 1/18/5
f 8/7/6 4/6/6 2/15/6 6/14/6
