# Blender 4.5.6 LTS
# www.blender.org
o V_carton_05
v -0.257500 -0.132500 -0.200000
v -0.257500 -0.132500 0.200000
v -0.257500 0.132500 -0.200000
v -0.257500 0.132500 0.200000
v 0.257500 -0.132500 -0.200000
v 0.257500 -0.132500 0.200000
v 0.257500 0.132500 -0.200000
v 0.257500 0.132500 0.200000
vn -1.0000 -0.0000 -0.0000
vn -0.0000 1.0000 -0.0000
vn 1.0000 -0.0000 -0.0000
vn -0.0000 -1.0000 -0.0000
vn -0.0000 -0.0000 -1.0000
vn -0.0000 -0.0000 1.0000
vt 0.392145 0.301634
vt 0.392145 0.002214
vt 0.590511 0.002214
vt 0.590511 0.301634
vt 0.002214 0.799420
vt 0.002214 0.500000
vt 0.387717 0.500000
vt 0.387717 0.799420
vt 0.590511 0.306062
vt 0.590511 0.605482
vt 0.392145 0.605482
vt 0.392145 0.306062
vt 0.387718 0.002214
vt 0.387717 0.301634
vt 0.002214 0.301634
vt 0.002214 0.002214
vt 0.387717 0.997786
vt 0.002214 0.997786
s 0
f 1/1/1 2/2/1 4/3/1 3/4/1
f 3/5/2 4/6/2 8/7/2 7/8/2
f 7/9/3 8/10/3 6/11/3 5/12/3
f 5/13/4 6/14/4 2/15/4 1/16/4
f 3/5/5 7/8/5 5/17/5 1/18/5
f 8/7/6 4/6/6 2/15/6 6/14/6
